<?xml version="1.0" encoding="UTF-8"?> <svg xmlns="http://www.w3.org/2000/svg" width="254.43" height="254.43" viewBox="0 0 254.43 254.43"><title>Adhesives &amp;amp; Chemicals</title><g><g><path d="M183.89,100.66c-.12,0-5.77,3.33-125.43,72.43-4.39,2.54-.06,11.24,4.48,11.45,1.4.06,127.11-72.85,127-72.79C194.79,109,188.51,98.29,183.89,100.66Z" fill="#08436a"></path><line x1="64.04" y1="183.31" x2="189.57" y2="110.81" fill="none" stroke="#fff" stroke-linecap="round" stroke-width="2"></line><line x1="58.73" y1="174.09" x2="184.26" y2="101.59" fill="none" stroke="#fff" stroke-linecap="round" stroke-width="2"></line><path d="M189.58,110.81c3.52-2-1.83-11.24-5.33-9.22" fill="none" stroke="#fff" stroke-linecap="round" stroke-width="2"></path><path d="M58.74,174.07c-3.6,2.08,1.93,11.15,5.31,9.23" fill="none" stroke="#fff" stroke-linecap="round" stroke-width="2"></path><path d="M57.64,176.38c0,5.78,7.37,9.9,7.52,4.5.18-5.83-7.52-10.19-7.52-4.5" fill="#08436a"></path><path d="M64.05,183.29c3.53-2-1.83-11.24-5.32-9.22" fill="none" stroke="#fff" stroke-linecap="round" stroke-width="0.7"></path><path d="M163.87,94.24,38.45,166.68c-4.4,2.53-.07,11.24,4.47,11.44,1.41.07,127.11-72.85,127-72.79C174.77,102.54,168.5,91.88,163.87,94.24Z" fill="#08436a"></path><line x1="44.03" y1="176.9" x2="169.56" y2="104.4" fill="none" stroke="#fff" stroke-linecap="round" stroke-width="2"></line><line x1="38.71" y1="167.67" x2="164.24" y2="95.18" fill="none" stroke="#fff" stroke-linecap="round" stroke-width="2"></line><path d="M169.56,104.4c3.53-2-1.83-11.24-5.32-9.22" fill="none" stroke="#fff" stroke-linecap="round" stroke-width="2"></path><path d="M38.72,167.65c-3.6,2.08,1.93,11.16,5.32,9.24" fill="none" stroke="#fff" stroke-linecap="round" stroke-width="2"></path><path d="M37.62,170c0,5.78,7.37,9.9,7.53,4.5.17-5.83-7.53-10.2-7.53-4.5" fill="#08436a"></path><path d="M44,176.88c3.52-2-1.83-11.24-5.33-9.23" fill="none" stroke="#fff" stroke-linecap="round" stroke-width="0.7"></path><path d="M145.09,87,19.67,159.45c-4.39,2.53-.07,11.24,4.48,11.44,1.4.06,127.1-72.85,127-72.79C156,95.3,149.72,84.65,145.09,87Z" fill="#08436a"></path><line x1="25.25" y1="169.67" x2="150.78" y2="97.17" fill="none" stroke="#fff" stroke-linecap="round" stroke-width="2"></line><line x1="19.93" y1="160.44" x2="145.46" y2="87.94" fill="none" stroke="#fff" stroke-linecap="round" stroke-width="2"></line><path d="M150.78,97.17c3.53-2-1.82-11.24-5.32-9.23" fill="none" stroke="#fff" stroke-linecap="round" stroke-width="2"></path><path d="M20,160.42c-3.6,2.08,1.93,11.16,5.31,9.23" fill="none" stroke="#fff" stroke-linecap="round" stroke-width="2"></path><path d="M18.85,162.73c0,5.79,7.36,9.9,7.52,4.5.17-5.82-7.53-10.19-7.52-4.5" fill="#08436a"></path><path d="M25.26,169.65c3.53-2-1.83-11.25-5.33-9.23" fill="none" stroke="#fff" stroke-linecap="round" stroke-width="0.7"></path><path d="M236.59,79.81a7.59,7.59,0,0,0-2.78-6.5c-1.72-1.44-61-35.84-66.07-37.95-4.88-2-13.92-1.27-18.09,1.36C133.43,47,119.76,50.2,123.23,59.43c.43,1.15-.41,117.74-.41,117.84a8.45,8.45,0,0,0,4.73,7.27c77.67,41,60.47,49,104.85,22.07C240.08,202,233.54,204.6,236.59,79.81Z" fill="#08436a"></path><path d="M124.16,176.42c0,2.2,1.5,4.3,4.18,5.85" fill="none" stroke="#fff" stroke-linecap="round" stroke-width="0.7"></path><path d="M231.09,204.68c2.68-1.55,4.18-3.65,4.18-5.84" fill="none" stroke="#fff" stroke-linecap="round" stroke-width="0.7"></path><line x1="231.09" y1="204.68" x2="209.23" y2="217.31" fill="none" stroke="#fff" stroke-linecap="round" stroke-width="0.7"></line><path d="M189,217.32c5.58,3.22,14.63,3.22,20.21,0" fill="none" stroke="#fff" stroke-linecap="round" stroke-width="0.7"></path><line x1="189.02" y1="217.31" x2="128.32" y2="182.27" fill="none" stroke="#fff" stroke-linecap="round" stroke-width="0.7"></line><path d="M234.5,79.22c-.42-4.55-.91-3-64.5-40.09-12.39-7.23-23.66,2.39-41,12.48-3.16,1.84-3.95,3.82-4.08,5.19" fill="none" stroke="#fff" stroke-linecap="round" stroke-width="0.7"></path><path d="M185.27,59.85a5.13,5.13,0,0,0-4.64,0" fill="none" stroke="#fff" stroke-linecap="round" stroke-width="0.7"></path><line x1="185.27" y1="59.86" x2="186.72" y2="60.69" fill="none" stroke="#fff" stroke-linecap="round" stroke-width="0.7"></line><path d="M189.41,59.66a.81.81,0,0,0-.8-.07" fill="none" stroke="#fff" stroke-linecap="round" stroke-width="0.7"></path><path d="M190.57,61.65a2.5,2.5,0,0,0-1.15-2" fill="none" stroke="#fff" stroke-linecap="round" stroke-width="0.7"></path><line x1="190.55" y1="61.64" x2="190.55" y2="62.78" fill="none" stroke="#fff" stroke-linecap="round" stroke-width="0.7"></line><path d="M190.56,62.79a.21.21,0,0,0,.1.18" fill="none" stroke="#fff" stroke-linecap="round" stroke-width="0.7"></path><line x1="190.65" y1="62.98" x2="193.58" y2="64.66" fill="none" stroke="#fff" stroke-linecap="round" stroke-width="0.7"></line><path d="M168,69.36c0,1,2.73,1,2.73,0" fill="none" stroke="#fff" stroke-linecap="round" stroke-width="0.7"></path><path d="M181,61.86c0,1,2.73,1,2.73,0" fill="none" stroke="#fff" stroke-linecap="round" stroke-width="0.7"></path><line x1="180.62" y1="59.86" x2="165.83" y2="68.4" fill="none" stroke="#fff" stroke-linecap="round" stroke-width="0.7"></line><path d="M165.85,68.39c-1.29.74-1.29,1.94,0,2.67" fill="none" stroke="#fff" stroke-linecap="round" stroke-width="0.7"></path><line x1="168.76" y1="72.76" x2="165.83" y2="71.08" fill="none" stroke="#fff" stroke-linecap="round" stroke-width="0.7"></line><path d="M164.88,70.29a1.65,1.65,0,0,0,1,1.34" fill="none" stroke="#fff" stroke-linecap="round" stroke-width="0.7"></path><line x1="168.78" y1="73.32" x2="165.83" y2="71.64" fill="none" stroke="#fff" stroke-linecap="round" stroke-width="0.7"></line><line x1="169.34" y1="72.72" x2="169.34" y2="71.79" fill="none" stroke="#fff" stroke-linecap="round" stroke-width="0.7"></line><path d="M170,71.4c-.36-.21-.65,0-.65.38" fill="none" stroke="#fff" stroke-linecap="round" stroke-width="0.7"></path><path d="M170.66,72.53A1.44,1.44,0,0,0,170,71.4" fill="none" stroke="#fff" stroke-linecap="round" stroke-width="0.7"></path><line x1="170.64" y1="72.53" x2="170.64" y2="73.85" fill="none" stroke="#fff" stroke-linecap="round" stroke-width="0.7"></line><path d="M170.65,73.82a1,1,0,0,0,.48.85" fill="none" stroke="#fff" stroke-linecap="round" stroke-width="0.7"></path><line x1="174.14" y1="76.42" x2="171.12" y2="74.68" fill="none" stroke="#fff" stroke-linecap="round" stroke-width="0.7"></line><line x1="174.14" y1="75.86" x2="171.24" y2="74.18" fill="none" stroke="#fff" stroke-linecap="round" stroke-width="0.7"></line><path d="M171.14,74a.22.22,0,0,0,.11.18" fill="none" stroke="#fff" stroke-linecap="round" stroke-width="0.7"></path><line x1="171.12" y1="74" x2="171.12" y2="72.86" fill="none" stroke="#fff" stroke-linecap="round" stroke-width="0.7"></line><path d="M171.14,72.85a2.5,2.5,0,0,0-1.15-2" fill="none" stroke="#fff" stroke-linecap="round" stroke-width="0.7"></path><path d="M170,70.88c-.63-.35-1.14,0-1.14.67" fill="none" stroke="#fff" stroke-linecap="round" stroke-width="0.7"></path><line x1="168.86" y1="71.56" x2="168.86" y2="72.7" fill="none" stroke="#fff" stroke-linecap="round" stroke-width="0.7"></line><path d="M168.77,72.74s.1,0,.1-.07" fill="none" stroke="#fff" stroke-linecap="round" stroke-width="0.7"></path><path d="M174.16,75.85a5.13,5.13,0,0,0,4.64,0" fill="none" stroke="#fff" stroke-linecap="round" stroke-width="0.7"></path><path d="M174.16,76.41a5.13,5.13,0,0,0,4.64,0" fill="none" stroke="#fff" stroke-linecap="round" stroke-width="0.7"></path><path d="M175.73,73.82c0,1,2.74,1,2.74,0" fill="none" stroke="#fff" stroke-linecap="round" stroke-width="0.7"></path><path d="M188.71,66.32c0,1,2.74,1,2.74,0" fill="none" stroke="#fff" stroke-linecap="round" stroke-width="0.7"></path><line x1="193.58" y1="67.34" x2="178.79" y2="75.86" fill="none" stroke="#fff" stroke-linecap="round" stroke-width="0.7"></line><path d="M193.58,67.33c1.29-.74,1.29-1.94,0-2.68" fill="none" stroke="#fff" stroke-linecap="round" stroke-width="0.7"></path><path d="M193.58,67.89a1.65,1.65,0,0,0,1-1.34" fill="none" stroke="#fff" stroke-linecap="round" stroke-width="0.7"></path><line x1="189.41" y1="59.68" x2="169.98" y2="70.88" fill="none" stroke="#fff" stroke-linecap="round" stroke-width="0.7"></line><line x1="193.58" y1="67.9" x2="178.79" y2="76.42" fill="none" stroke="#fff" stroke-linecap="round" stroke-width="0.7"></line><path d="M141.64,54.36c0,10.49,27.45,10.49,27.45,0" fill="none" stroke="#fff" stroke-linecap="round" stroke-width="0.7"></path><path d="M144.61,54.21c4.95,4,16.54,4.11,21.7.2" fill="none" stroke="#fff" stroke-linecap="round" stroke-width="0.7"></path><path d="M123.67,177.62c0,2.57,2.17,5,4.29,6.17,76,40,59.37,49,104,22.11,2.76-1.66,4.9-5.21,3.34-8.85" fill="none" stroke="#fff" stroke-linecap="round" stroke-width="2"></path><path d="M124.14,174.63a6.5,6.5,0,0,0-.47,3" fill="none" stroke="#fff" stroke-linecap="round" stroke-width="2"></path><path d="M150,37.54c-21.35,12.31-26.3,13.86-26.3,18.87" fill="none" stroke="#fff" stroke-linecap="round" stroke-width="2"></path><path d="M235.74,78.83A6.77,6.77,0,0,0,233.27,74c-1.62-1.37-60.78-35.69-65.83-37.82-4.58-1.93-13.57-1.22-17.47,1.38" fill="none" stroke="#fff" stroke-linecap="round" stroke-width="2"></path><line x1="123.67" y1="57.22" x2="123.67" y2="56.41" fill="none" stroke="#fff" stroke-linecap="round" stroke-width="2"></line><path d="M234.52,78.83c0,2.38-1.76,3.89-3.74,5.22-23.64,15.91-31.49,17-40.09,13.34-.48-.21-60.73-34.73-64-37.24a5.33,5.33,0,0,1-1.8-3.74" fill="none" stroke="#fff" stroke-linecap="round" stroke-width="0.7"></path><path d="M231.32,85.88c2.27-1.3,4.42-3.49,4.42-6.22" fill="none" stroke="#fff" stroke-linecap="round" stroke-width="2"></path><path d="M123.67,57.22c0,2.66,2,4.81,4.29,6.17,78.76,46.23,64.57,44.88,103.36,22.49" fill="none" stroke="#fff" stroke-linecap="round" stroke-width="2"></path><line x1="235.74" y1="79.66" x2="235.74" y2="78.83" fill="none" stroke="#fff" stroke-linecap="round" stroke-width="2"></line><line x1="235.27" y1="198.85" x2="235.27" y2="81.81" fill="none" stroke="#fff" stroke-linecap="round" stroke-width="2"></line><line x1="124.14" y1="176.43" x2="124.14" y2="59.39" fill="none" stroke="#fff" stroke-linecap="round" stroke-width="2"></line><line x1="164.88" y1="69.74" x2="164.88" y2="70.3" fill="none" stroke="#fff" stroke-linecap="round" stroke-width="0.7"></line><line x1="194.53" y1="66" x2="194.53" y2="66.56" fill="none" stroke="#fff" stroke-linecap="round" stroke-width="0.7"></line><path d="M178.47,73.83c0-1.62-2.76-1.59-2.76,0" fill="none" stroke="#fff" stroke-linecap="round" stroke-width="0.7"></path><path d="M170.75,69.37c0-1.63-2.75-1.56-2.75,0" fill="none" stroke="#fff" stroke-linecap="round" stroke-width="0.7"></path><path d="M183.73,61.87c0-1.62-2.73-1.58-2.73,0" fill="none" stroke="#fff" stroke-linecap="round" stroke-width="0.7"></path><path d="M191.45,66.33c0-1.62-2.74-1.59-2.74,0" fill="none" stroke="#fff" stroke-linecap="round" stroke-width="0.7"></path><line x1="188.62" y1="59.61" x2="169.2" y2="70.82" fill="none" stroke="#fff" stroke-linecap="round" stroke-width="0.7"></line><path d="M169.07,54.37c0-4,.7-6.46-4-8.81-9.34-4.66-16.57-1.34-17.94-.76-6.39,2.7-5.52,7.24-5.52,9.57" fill="none" stroke="#fff" stroke-linecap="round" stroke-width="2"></path><path d="M169.22,75c-.34-1-.35-.61,0-1.69" fill="none" stroke="#fff" stroke-linecap="round" stroke-width="0.7"></path><path d="M179.38,79.14a6.73,6.73,0,0,1-2.91,0" fill="none" stroke="#fff" stroke-linecap="round" stroke-width="0.7"></path><path d="M169.63,74.68c0-.49.57-.93,1-1.14" fill="none" stroke="#fff" stroke-linecap="round" stroke-width="0.7"></path><path d="M190.55,62.18c4.74-.79,9.9,3.91,9.9,4.28" fill="none" stroke="#fff" stroke-linecap="round" stroke-width="0.7"></path><path d="M174.57,79.72a7.44,7.44,0,0,0,6.7,0" fill="none" stroke="#fff" stroke-linecap="round" stroke-width="0.7"></path><path d="M200.2,68.79a2.72,2.72,0,0,0,1.57-2.31" fill="none" stroke="#fff" stroke-linecap="round" stroke-width="0.7"></path><path d="M168.31,74.7c0,1.87,1.87,2.48,6.26,5" fill="none" stroke="#fff" stroke-linecap="round" stroke-width="0.7"></path><line x1="200.2" y1="68.79" x2="181.27" y2="79.72" fill="none" stroke="#fff" stroke-linecap="round" stroke-width="0.7"></line><path d="M170.5,72c-1.18.68-2.19,1.32-2.19,2.69" fill="none" stroke="#fff" stroke-linecap="round" stroke-width="0.7"></path><path d="M190.36,60.83c4.5-1.13,11.41,3.59,11.41,5.62" fill="none" stroke="#fff" stroke-linecap="round" stroke-width="0.7"></path><path d="M169.63,74.66c0,.48.45.84.85,1.1" fill="none" stroke="#fff" stroke-linecap="round" stroke-width="0.7"></path><path d="M170.48,75.76c4.09,2.34,5.9,3.92,8.62,3.31.86-.19,21.35-11.57,21.35-12.62" fill="none" stroke="#fff" stroke-linecap="round" stroke-width="0.7"></path><line x1="201.77" y1="66.48" x2="201.77" y2="66.45" fill="none" stroke="#fff" stroke-linecap="round" stroke-width="0.7"></line><path d="M131.52,79.15c-3.85-6.3-12.63-6.64-12.66-7.4,0-.1-4.88-41.06-5-41.52a1.33,1.33,0,0,0-2.42.09c0,.12-4.94,41.33-4.94,41.4,0,.48-13.59,2.63-13.82,11.17-.4,15,0-50,0,130.71,0,8.38,11.93,11.75,19.85,11.78,20.12.09,20.15-12.19,20.14-11.48C132.68,213.8,133.36,82.16,131.52,79.15Z" fill="#08436a"></path><path d="M131.52,79.15c-3.85-6.3-12.63-6.64-12.66-7.4,0-.1-4.88-41.06-5-41.52a1.33,1.33,0,0,0-2.42.09c0,.12-4.94,41.33-4.94,41.4,0,.48-13.59,2.63-13.82,11.17-.4,15,0-50,0,130.71,0,8.38,11.93,11.75,19.85,11.78,20.12.09,20.15-12.19,20.14-11.48C132.68,213.8,133.36,82.16,131.52,79.15Z" fill="none" stroke="#fff" stroke-linecap="round" stroke-width="2"></path><path d="M106.78,71.63c-.57,4.79,12.38,4.77,11.81,0" fill="none" stroke="#fff" stroke-linecap="round" stroke-width="0.7"></path><path d="M92.94,213.74c0,15.11,39.49,15,39.49,0" fill="none" stroke="#fff" stroke-linecap="round" stroke-width="0.7"></path><path d="M92.94,213.75a7.87,7.87,0,0,1,.15-1.38" fill="none" stroke="#fff" stroke-linecap="round" stroke-width="0.7"></path><path d="M132.28,212.39a6.9,6.9,0,0,1,.15,1.36" fill="none" stroke="#fff" stroke-linecap="round" stroke-width="0.7"></path><path d="M106.77,78.29c0,4.54,11.84,4.48,11.84,0" fill="none" stroke="#fff" stroke-linecap="round" stroke-width="0.7"></path><path d="M106.76,73.6C99.34,75,94.23,79,93.94,83.46" fill="none" stroke="#fff" stroke-linecap="round" stroke-width="0.7"></path><path d="M131.43,83.46C131.14,79,126,75,118.61,73.6" fill="none" stroke="#fff" stroke-linecap="round" stroke-width="0.7"></path><path d="M106.79,71.62c6.7-56.32,5-57.2,11.79,0" fill="none" stroke="#fff" stroke-linecap="round" stroke-width="0.7"></path><line x1="118.61" y1="71.87" x2="118.61" y2="78.3" fill="none" stroke="#fff" stroke-linecap="round" stroke-width="0.7"></line><line x1="106.77" y1="71.87" x2="106.77" y2="78.3" fill="none" stroke="#fff" stroke-linecap="round" stroke-width="0.7"></line><line x1="132.43" y1="83.08" x2="132.43" y2="213.75" fill="none" stroke="#fff" stroke-linecap="round" stroke-width="0.7"></line><line x1="92.94" y1="83.08" x2="92.94" y2="213.75" fill="none" stroke="#fff" stroke-linecap="round" stroke-width="0.7"></line><path d="M106.76,72.8c-19.83,3.81-15.64,21,5.78,21.1,20.92.09,26.77-17.12,6.07-21.1" fill="none" stroke="#fff" stroke-linecap="round" stroke-width="0.7"></path><path d="M106.76,72.21c-21.17,3.84-16.93,22.16,5.78,22.25,22.19.1,28.15-18.24,6.07-22.25" fill="none" stroke="#fff" stroke-linecap="round" stroke-width="0.7"></path></g><rect width="254.43" height="254.43" fill="none"></rect></g></svg> 