<?xml version="1.0" encoding="UTF-8"?> <svg xmlns="http://www.w3.org/2000/svg" width="49.419" height="79.375" viewBox="0 0 49.419 79.375"><g id="compass-white" transform="translate(0.019)"><path id="Path_57" data-name="Path 57" d="M18.9,36.7A11.55,11.55,0,1,1,30.4,25.1h0A11.4,11.4,0,0,1,18.9,36.7Zm0-21.1a9.6,9.6,0,1,0,9.5,9.6h0a9.455,9.455,0,0,0-9.5-9.6Z" fill="#fff"></path><path id="Path_58" data-name="Path 58" d="M18.9,54.4a29.787,29.787,0,0,1-7.3-.9l.5-1.9a28.446,28.446,0,0,0,34.5-21,30.84,30.84,0,0,0,.8-6.8h2A30.579,30.579,0,0,1,18.9,54.4Z" fill="#fff"></path><path id="Path_59" data-name="Path 59" d="M1,79.3H.7A.921.921,0,0,1,0,78.2L7.5,26.3a.945.945,0,0,1,1-1,.945.945,0,0,1,1,1A9.526,9.526,0,0,0,19,34.7a.945.945,0,0,1,1,1,.6.6,0,0,1-.1.4L1.9,78.7A.875.875,0,0,1,1,79.3ZM8.8,30.8,3,70.8,17.4,36.6A11.4,11.4,0,0,1,8.8,30.8Z" fill="#fff"></path><path id="Path_60" data-name="Path 60" d="M36.9,79.3a.875.875,0,0,1-.9-.6L18,36.1a.992.992,0,0,1,.5-1.3.6.6,0,0,1,.4-.1,9.6,9.6,0,0,0,9.5-8.4,1,1,0,0,1,2,0l7.5,51.9a.921.921,0,0,1-.7,1.1C37,79.4,37,79.4,36.9,79.3ZM20.4,36.6,34.8,70.8,29,30.8A11.4,11.4,0,0,1,20.4,36.6Z" fill="#fff"></path><path id="Path_1347" data-name="Path 1347" d="M0,0H7.6V2H0Z" transform="translate(15.1 24.2)" fill="#fff"></path><rect id="Rectangle_8" data-name="Rectangle 8" width="2" height="5.2" transform="translate(17.9 9.4)" fill="#fff"></rect><path id="Path_61" data-name="Path 61" d="M22.5,10.4h-7a.945.945,0,0,1-1-1V1a.945.945,0,0,1,1-1h7a.945.945,0,0,1,1,1V9.4A1,1,0,0,1,22.5,10.4Zm-6-2h5V2h-5Z" fill="#fff"></path></g></svg> 