<?xml version="1.0" encoding="utf-8"?>
<!-- Generator: Adobe Illustrator 24.1.1, SVG Export Plug-In . SVG Version: 6.00 Build 0)  -->
<svg version="1.1" id="Layer_1" xmlns="http://www.w3.org/2000/svg" xmlns:xlink="http://www.w3.org/1999/xlink" x="0px" y="0px"
	 viewBox="0 0 254.4 254.4" style="enable-background:new 0 0 254.4 254.4;" xml:space="preserve">
<style type="text/css">
	.st0{fill:#FFFFFF;}
	.st1{fill:#03436A;}
	.st2{fill:none;}
</style>
<g>
	<g id="Layer_2_1_">
		<g id="Layer_1-2">
			<path class="st0" d="M104.3,233c-0.2-8.7-0.4-17.2-0.6-25.9c-0.2-8-0.4-16.2-0.6-24.2c0.1-4.1,0.8-8,2.1-11.9
				c2.6-9.1,5.4-18.2,8-27.3c2-7,4.3-14,6.4-21.2c0.2-0.6,0.3-1.4,0.3-2c0.4-0.6,0.7-1.4,1-2.1c1.8-5.7,3.6-11.5,5.3-17.3
				c0.1-0.4,0.3-0.7,0.4-1.1l2.7,1.4c0.7-3,1.5-5.6,2.2-8.7l5.6,11.8c1.4,3.2,2.9,6.2,4.4,9.3c0.3,0.3,0.9,1.9,1.1,2.3
				c3.5,7.4,7.1,14.9,10.5,22.4c0.7,1.4,1,3,1,4.6c0.1,3.2,0,6.5,0,9.9c0,0.7,0,2.9,0,3.2c-0.2,13.6-0.5,27.1-0.8,40.6
				c-0.2,1.7,0.7,3.6,2.3,4.3c1.8,0.9,3.4,2.1,5.2,3c1,0.5,2,0.6,3.2,0.3c5.2-1.9,9.3-5.1,10.8-10.6c0.6-2.1,0.3-4.7,0.3-7
				c0-16.4-0.1-32.9-0.1-49.4c0-4.8-2.2-8.9-3.8-13.1c-3.6-9.7-7.2-19.2-10.9-28.9c-0.6-1.7-1.3-3.5-2-5.1c-0.6-1.1-0.1-1.7,0.5-2.4
				c2.1-2.3,4.3-4.9,6.4-7.2l0.1-0.1l0,0c1.3-1.7,0.9-4.1-0.8-5.3c-1.7-1-3.4-2.1-5.1-3c-0.5-0.2-1.1-0.1-1.6,0.2
				c-1.4,1-2.6,2.1-4.1,3.2c-0.5,0.3-1.3,0.3-1.9,0.1c-1.5-0.7-2.7-1.6-4.2-2.3c-0.7-0.3-1.4-0.5-2.1-0.6c-0.7-2.1-1.7-4.6-2.4-7
				c-0.1-0.7-0.1-1.6,0.2-2.3c1.8-6,3.6-12,5.4-18c0.5-1.7,0.5-3.5,0.1-5.2c-1.9-7.2-3.7-14.6-5.5-21.8c-0.3-0.9-1-1.8-1.8-2.3
				c-1.3-0.9-2.6-1.7-4.1-2.4c-2.1-1.3-3.9-0.4-4.3,2c-0.6,3.9-1.2,7.7-1.7,11.5c-0.1,0.6-0.2,1.2-0.3,1.7v0.1
				c-0.3,0.9,0.3,1.8,1.1,2.1c1.6,0.6,1.7,1.7,1,3c-1,1.4-1.9,2.6-3.1,4c1.3,0.8,3,1.9,4.6,2.7c0.9,0.3,1.4,1.2,1.2,2.2
				c-0.7,5.1-1.4,10.1-2.1,15.2c-2.6-0.9-2.7-1-2.3-3.6c0.6-4,1.1-8,1.7-12c0.3-0.9-0.3-1.9-1.1-2.2c-1.7-1-3.6-2-5.6-3.3
				c-0.6,3.3-1,6.1-1.4,9.1c-0.2,0.7,0.1,2.1-1.3,1.7c-0.5-0.1-0.9-1.5-0.8-2.2c0.1-0.9,0.6-2,1.3-2.7c0.8-1,1.1-2.3,0.7-3.6
				c-0.5-3.2-1-6.2-1.6-9.3c-0.2-0.8-0.8-1.7-1.5-2.2c-1.3-0.9-2.7-1.8-4.3-2.5c-2.2-1.3-3.9-0.6-4.4,2c-0.7,3.5-1.4,7-2,10.5
				c-1.3,6.8-2.5,13.6-3.8,20.5c-0.1,0.7,0,1.5,0.3,2.1c1.8,4.3,3.8,8.7,5.8,12.9c0,0.1,0.1,0.2,0.1,0.3c-0.2,3.2,2.5,3.9,4.6,5
				c1.1,0.5,1.4,0.9,1.1,2.2c-1.7,6.2-3.3,12.6-4.9,19c-1.2-0.5-2.2-1.2-3.4-1.9c-2.2-1.8-4.8-0.5-7.1-0.4c-0.3,0-0.6,0.9-0.7,1.3
				c-0.7,2.4-1.3,5-2,7.3c-0.3,0.8-0.9,1.3-1.5,1.6c-1.9,0.8-3.9,1.6-5.9,2.1c-1.7,0.3-3,1.6-3.2,3.3c-0.5,2.6-0.6,2.6,1.7,4.1
				c1.7,1,3.5,1.8,5.3,3c-0.6,2.7-1.4,5.7-2.1,8.7c-3.7,14.2-7.1,28.4-11.1,42.4c-2,6.9-2.1,14-2.1,21.2c0,14.7,0,29.4,0,44.1
				c0,2.6,0.8,4.6,3.4,5.7c1.2,0.4,2.2,1.1,3.3,1.8c1.7,1.1,4.1,1.3,6,0.5c3.2-1.1,5.7-3.4,7.6-6c0.3-0.7,0.5-1.5,0.6-2.2
				C103.6,235.2,103.8,234,104.3,233z"/>
			<path class="st1" d="M164.5,80.4c-2.4,2.3-4.6,4.9-6.8,7.4c-0.4,0.5-0.5,1.2-0.3,1.8c5.1,13.6,10.4,27.5,15.5,41.2
				c0.8,2.2,1.2,4.4,1.2,6.6c0.2,17.3,0.3,34.6,0.3,51.8c0.2,1.7-0.1,3.6-0.6,5.2c-1.8,4.1-5.2,7.1-9.4,8.6c-2.6,1-3.8,0.1-3.8-2.6
				c0-4.3,0-8.4,0.1-12.6c0.2-13.2,0.5-26.4,0.6-39.6c0-2.4-0.5-4.8-1.3-7c-1.4-3.4-3.2-6.8-4.8-10.2c-5.7-12-11.4-24.1-17.1-36.1
				c-0.6-0.8-0.4-1.9,0.4-2.5c3-2.9,5.8-5.8,8.6-8.8c1.8-1.9,3.8-3.7,5.7-5.6c0.7,2,1.6,4.1,2.4,6.3l9.5-7.5
				C165.7,79.1,165.7,79.1,164.5,80.4z"/>
			<path class="st1" d="M101.7,237.9c-2.2,3.2-5.2,5.6-9.3,6.1c-1.9,0.2-2.6-0.3-2.7-2.2c-0.2-1.6-0.3-3.4-0.3-5
				c0-16.8,0-33.5,0-50.3c0-1.7,0.1-3.5,0.5-5.1c1.9-7.5,3.9-15,5.8-22.5c3.1-11.7,6-23.3,9.1-34.9c0.4-1.8,0.9-3.7,1.4-5.8
				l-8.7,0.4c0.5-2.2,0.6-4.1,3.3-4.5c1.8-0.4,3.6-1.1,5.3-1.8c2.2-0.8,2.5-1.4,2.3-3.8l0,0c0.3-0.5,0.8-1.1,0.8-1.6
				c0.2-3.9,2-5.7,6.1-5.6c3.3-0.2,6.6-0.5,10-1c-1.5,5.3-3,10.2-4.5,15.3c-0.5,1.6-0.8,3.2-1.1,4.8c-0.3,0.4-0.4,0.7-0.6,1
				c-1.2,3.8-2.2,7.5-3.5,11.3c-3.9,12.7-7.6,25.6-11.5,38.3c-1.5,4.5-2.2,9.2-2,13.9c0.2,3.5,0.2,7,0.3,10.5l0.6,40.8
				C102.5,236.8,102,237.3,101.7,237.9z"/>
			<path class="st1" d="M104,123.3c-4.2,16.4-8.6,32.9-12.7,49.5c-1.1,4.4-2.6,9-2.7,13.4c-0.3,15.5-0.1,31.1-0.1,46.4v10.1
				c-0.5-0.3-1-0.6-1.5-0.8c-3.1-1-3.8-3.2-3.8-6.4c0.1-15.1-0.1-30-0.1-45.1c-0.3-4.3,0.1-8.7,0.7-12.8c1.4-6.7,3.4-13.1,5.1-19.7
				c2.7-11,5.6-21.9,8.3-32.9c1.5-5.8,1.5-5.7,7.3-5.5c0.2,0,0.3,0,0.4,0.1C104.5,120.6,104.2,121.7,104,123.3z"/>
			<path class="st1" d="M142.3,113.2c-2.5-5.5-5.3-11.1-7.8-16.6c-0.7-1.7-1.5-3.4-2.2-5.1l0.4-0.4c1.4,1.2,3.6,2,4.4,3.6
				c1.9,3.1,3.3,6.6,4.9,10c5.3,11.3,10.7,22.5,16,33.8c1.6,3.5,2.9,6.8,2.7,10.7c-0.5,15.4-0.8,30.7-1.1,46c0,2.2,0,4.6,0,7
				c-0.6-0.4-1.3-0.8-2-1.1c-2.7-1-3.5-2.9-3.4-5.6c0.4-12.6,0.6-25,0.8-37.7c0-0.9,0.1-3.3,0.1-3.6c0.1-3.2,0.1-6.2,0.1-9.3
				c0-2.7-0.5-5.6-1.7-8.1c-2.5-5.1-5-10.4-7.4-15.6c-1.1-2.4-2.4-4.7-3.6-6.9C142.4,113.9,142.3,113.6,142.3,113.2z"/>
			<path class="st1" d="M133.6,82.6c0.4-1.2,0.7-2.3,1-3.7c-0.6-0.5-1.4-0.9-2-1.3c-1.5-1.1-4.1-1.2-4.1-4.2l-0.5,0.1l-3.4,12.9
				c-2.4-1.4-3.5-2.6-3.8-5.1c-0.8-5.5,1.1-10.2,4.2-14.6c1.9-3.1,4.7-5.3,7.9-6.7c4.6-1.8,8,0.2,8.6,5.1c0.5,4-0.5,7.9-2.5,11.3
				c-1.3,2.3-3,4.6-4.6,6.6L133.6,82.6z"/>
			<path class="st1" d="M142.4,18c1.6,6.6,3.2,13.3,5,19.7c1,3.1,0.9,6.2-0.2,9.3c-1.3,3.7-2.2,7.5-3.4,11.3c-0.4,1.4-1,2.9-1.5,4.6
				c-1.4-3.5-4.1-4.7-7.4-4.6c0.5-3.4,0.8-6.8,1.3-10.1c0.4-3.3,0.7-6.4,3.4-9.1c2.2-2.2,1.4-5-1.2-6.4c0.6-4.6,1.2-9.3,1.9-13.7
				c0.1-0.7,0.9-1.2,1.6-2.2C142.2,17.8,142.3,18,142.4,18z"/>
			<path class="st1" d="M121.8,29.3c0.5,2.5,1,5.3,1.5,7.8c0.4,2.4,0.5,4.4-1.1,6.6c-1.9,2.6-0.9,4.9,2,5.6
				c-0.2,1.6-0.3,3.3-0.6,4.9c0,0.1,0,0.1,0,0.2s0,0.1,0,0.1c-0.2,1.1,0.5,2.3,1.7,2.6c1.2,0.4,1.9,1.3,2,2.5c0.5,1.5,0,3.4-1.3,4.6
				c-3,3.2-4.8,7.2-6,11.8c-1.9-4.2-3.7-7.8-5.3-11.7c-0.4-1.1-0.5-2.1-0.3-3.3c1.8-9.9,3.7-19.9,5.6-29.8c0.3-0.9,0.8-1.7,1.3-2.4
				L121.8,29.3z"/>
			<path class="st1" d="M119.3,31.3c-1.4,7.2-2.6,14.4-4.1,21.6c-0.6,3.1-1.1,6-1.7,9.2c-1.5-0.8-2.7-1.6-4.1-2.2h-0.1
				c-0.9-0.3-1.3-1.2-1-2.2c1.4-7.3,2.6-14.6,4.1-21.9c0.5-3,1.1-5.8,1.7-8.6c0.4-1.8,1.1-2.1,2.6-1.3c1.3,0.7,2.5,1.5,3.7,2.1
				C119.9,29.1,119.4,30.2,119.3,31.3z"/>
			<path class="st1" d="M128.6,99.9c-1.2-0.8-2.5-1.6-3.9-2.2c-1.3-0.6-1.4-1.4-1.1-2.6c1.1-4,2-7.9,3.1-11.9l1.7-6.8l5.4,3.1
				L128.6,99.9z"/>
			<path class="st1" d="M136.4,82.7c0-0.5,0.1-0.8,0.3-1c3.2-3.9,5.4-8.6,6.1-13.5c1.5,4.3,3.1,8.2,4.5,12.3c0,0.5-0.1,0.9-0.3,1.2
				c-2.7,2.5-5.6,5.2-8.2,7.6C138.1,87.5,137.3,85.1,136.4,82.7z"/>
			<path class="st1" d="M132.9,30.8c-0.9-0.5-0.9-1.2-0.8-2c0.5-2.5,0.8-5.1,1.1-7.5c0.2-1.8,0.4-3.6,0.7-5.3c0.5-2,1.5-2.5,3.2-1.5
				c1.2,0.6,2.3,1.4,3.4,2c-2.3,5.3-1.8,11-3.2,16.6C135.7,32.2,134.4,31.2,132.9,30.8z"/>
			<path class="st1" d="M127.2,38.7c1.7,0.9,3.1,1.7,4.5,2.5c0.5,0.4,0.7,1,0.7,1.6c-0.3,2.4-0.7,4.7-1,7c-0.5,2.9-0.9,5.6-1.3,8.8
				l-5.4-3.2C125.5,49.9,126.3,44.4,127.2,38.7z"/>
			<path class="st1" d="M122.7,95.6c-0.2,0.9-0.5,1.8,0.6,2.2c0.2,0.1,0.4,0.4,0.4,0.7c0,0.2-0.4,0.5-0.7,0.5
				c-2.5,0.4-5.1,0.7-7.7,1c1.4-6.2,3-12.3,4.6-18.7c1,2.9,2,5,4.8,6.1C123.9,90.4,123.2,93,122.7,95.6z"/>
			<path class="st1" d="M109.3,60.4c1.4,1.3,3.7,2.2,4.5,3.9c2.1,4,3.9,8.3,5.7,12.5c0.2,0.5,0.3,1.1,0.4,1.7
				c-1.7-0.9-3.1-1.7-4.4-2.5c-0.3-0.3-0.6-0.7-0.7-1.1c-0.4-1.1-0.7-2.2-1.1-3.4c-1.6-3.6-3.3-7.1-4.9-10.7L109.3,60.4z"/>
			<path class="st1" d="M107,110.3l-5.2-3.1l2.2-8.8l5.4,3.2c-0.5,2-1.1,3.9-1.5,5.8c-0.1,0.4,0.1,0.7,0.2,1"/>
			<path class="st1" d="M153.8,78.2c-0.1-0.5,0.1-1.1,0.4-1.5c4.1-4.2,4.3-4.2,9.2-1c0.2,0.1,0.4,0.2,0.6,0.4l-8.3,6.8
				C155,81.1,154.4,79.6,153.8,78.2z"/>
			<path class="st1" d="M98.3,114c-0.2,0.1-0.4,0.1-0.6,0c-1.4-0.8-3-1.6-4.8-2.7c2.7-1,5.3-1.9,7.7-2.7c0.4-0.1,0.8-0.1,1.1,0.1
				c1.3,0.8,2.7,1.5,4.5,2.6C103.4,112.2,100.7,113.2,98.3,114z"/>
			<path class="st1" d="M138.9,34.2c0.4,0.3,0.7,0.7,0.8,1.1c0.4,1.5-1.1,4.6-2.5,5.2c-0.4,0.1-0.8,0.1-1.1,0
				c-1.5-0.8-3-1.7-4.2-2.4l3-5.1C136,33.4,137.6,33.7,138.9,34.2z"/>
			<path class="st1" d="M91.1,115.2c0.1-0.6,0.2-1.2,0.3-1.7c0.1-0.5,0.3-1,0.5-1.6c1.1,0.6,2,1.2,3.1,1.7c2.5,1.5,2.5,1.7,1.2,4.8
				L91.1,115.2z"/>
			<path class="st1" d="M146.7,73.8l5.4,3.2l-3.7,3.6c-0.7-2.1-1.4-4.3-2.1-6.3L146.7,73.8z"/>
			<path class="st1" d="M135.4,82.7c0.9,2.6,1.7,4.7,2.5,7.2l-5.5-3.2L135.4,82.7z"/>
			<path class="st1" d="M135.2,92c-0.6-0.5-1.3-0.9-1.9-1.2c-1.4-0.7-1.2-1.5-0.4-2.6l5.2,3.1C137.4,92.8,136.4,92.7,135.2,92z"/>
			<path class="st1" d="M105.6,98.4c3.3-1.5,5.2,0.6,7.7,2C109.9,101.9,107.9,99.8,105.6,98.4z"/>
			<path class="st0" d="M154.4,155c0.3,0.8,0.4,1.6-0.1,2c-0.3,12.6-0.4,25-0.8,37.7c0,2.9,0.8,4.6,3.4,5.6c0.7,0.4,1.4,0.7,2,1.1
				c0-2.5,0-4.8,0-7c0.4-15.4,0.7-30.7,1.1-46c0.2-3.9-1.1-7.3-2.7-10.7c-5.4-11.3-10.7-22.5-16-33.8c-1.5-3.4-3.2-6.7-4.9-10
				c-0.9-1.5-2.9-2.4-4.4-3.6l-0.4,0.4c0.7,1.7,1.5,3.5,2.2,5.1c2.5,5.5,5.3,11.1,7.8,16.6c0.2,0.5,1.9,4.6,2,5
				c-0.1,0.1-1.9-3.6-1.9-3.5c-0.2-0.2-0.6-0.4-0.7-0.7c-1.4-3.2-2.9-6.1-4.4-9.3L131,92.2c-0.7,3.2-1.5,5.9-2.2,8.7l-3-1.5
				c-0.2,0.5-0.3,0.8-0.4,1.1c-1.7,5.8-3.6,11.5-5.3,17.3c-0.2,0.8-1.1,4.1-1.4,4.8c-0.1,0-0.2-1.8-0.3-1.8c0.3-1.6,1.2-4,1.6-5.5
				c1.3-5.1,2.9-10,4.5-15.3c-3.3,0.6-6.6,0.9-10,1c-4,0-5.9,1.7-6.1,5.6c-0.2,1.2-0.5,2.4-0.8,3.7c-0.2,0.3-1.1,0.9-1,0.4
				c0.2-1.9,1.7-7.1,2.2-9.2l-5.4-3.2c-0.7,3.1-1.5,5.8-2.2,8.8l5.2,3.1c0.6-0.7,0.9-0.6,1.3-1.1c0.2,2.4,0,2.3-2.2,3.1
				c-1.7,0.7-3.5,1.4-5.3,1.8c-2.7,0.5-3,2.2-3.3,4.5l8.7-0.4c-0.6,2.1-1,4-1.4,5.8c-3.1,11.7-6,23.3-9.1,34.9
				c-1.9,7.4-4,15-5.8,22.5c-0.3,1.6-0.5,3.4-0.5,5.1c0,16.8,0,33.5,0,50.3c0,1.6,0.1,3.4,0.2,5c0.2,1.9,0.8,2.4,2.7,2.2
				c4-0.5,6.9-2.9,9.3-6.1c0.6-0.6,1-1.2,1.4-1.7l0.1,0.1c-0.1,0.7-0.3,1.5-0.6,2.2c-1.8,2.7-4.5,4.8-7.6,6c-1.9,0.9-4.2,0.7-6-0.5
				c-1.1-0.7-2-1.3-3.3-1.8c-2.6-1.1-3.4-3.1-3.4-5.7c0.1-14.7,0.1-29.4,0-44.1c0-7.2,0.1-14.2,2.1-21.2c4-14,7.4-28.2,11.1-42.4
				c0.7-3,1.5-5.9,2.1-8.7c-1.9-1.1-3.6-1.9-5.3-3c-2.4-1.4-2.2-1.4-1.7-4.1c0.2-1.6,1.5-3,3.2-3.3c2-0.5,4.1-1.3,6-2.1
				c0.8-0.3,1.3-0.9,1.5-1.6c0.7-2.3,1.4-4.9,2-7.3c0.2-0.6,0.5-1.3,0.7-1.3c2.3-0.2,4.9-1.4,7.1,0.4c1.1,0.7,2.1,1.4,3.4,1.9
				c1.6-6.4,3.3-12.8,4.9-19c0.3-1.1,0-1.7-1.1-2.2c-2-1.2-4.6-1.8-4.6-5c0-0.1-0.1-0.2-0.1-0.3c-1.9-4.3-3.9-8.6-5.7-12.8
				c-0.3-0.6-0.4-1.4-0.3-2.1c1.2-6.8,2.4-13.6,3.8-20.5c0.6-3.6,1.3-7,2-10.5c0.5-2.5,2.1-3.4,4.4-2c1.4,0.7,2.7,1.4,4.2,2.4
				c0.8,0.5,1.3,1.4,1.5,2.2c0.6,3.2,1.1,6.2,1.6,9.3c0.5,1.3,0.2,2.5-0.6,3.6c-0.7,0.9-1.1,1.8-1.2,3c-0.2,0.7,0.3,2.1,0.8,2.2
				c1.4,0.4,1.2-1,1.3-1.7c0.6-3,1-5.8,1.4-9.1c1.9,1.2,3.8,2.2,5.6,3.3c0.9,0.3,1.4,1.2,1.1,2.2c-0.6,4-1.2,8-1.7,12
				c-0.3,2.5-0.3,2.7,2.3,3.6c0.7-5.2,1.4-10.2,2.1-15.3c0.3-0.9-0.2-1.9-1.2-2.2c-1.5-0.9-3.2-1.9-4.6-2.7c1.1-1.3,2-2.5,3.1-4
				c0.6-1.1,0.6-2.3-1-3h-0.1c-0.9-0.4-1.3-1.4-1-2.2c0.2-0.5,0.2-1.2,0.3-1.7c0.6-3.9,1.1-7.6,1.7-11.5c0.4-2.4,2.1-3.4,4.3-2
				c1.4,0.6,2.7,1.5,4.1,2.3c0.8,0.5,1.5,1.3,1.8,2.3c1.9,7.2,3.6,14.6,5.5,21.8c0.5,1.7,0.4,3.5-0.1,5.2
				c-1.8,6.1-3.7,12.1-5.4,18.1c-0.2,0.7-0.3,1.6-0.1,2.3c0.7,2.5,1.7,4.8,2.4,7c0.7,0.2,1.5,0.3,2.1,0.6c1.4,0.7,2.7,1.7,4.2,2.3
				c0.6,0.3,1.3,0.2,1.9-0.1c1.5-0.9,2.6-2.1,4.1-3.2c0.4-0.3,1.1-0.4,1.6-0.2c1.7,0.9,3.5,1.8,5.1,3l0.1,0.1
				c1.6,1.3,1.9,3.8,0.6,5.4l-6.4,7.3c-0.6,0.7-1,1.3-0.5,2.4c0.8,1.6,1.4,3.4,2,5.1c3.7,9.7,7.3,19.2,10.9,28.9
				c1.6,4.3,3.8,8.3,3.8,13.1c0,16.4,0.1,32.9,0.1,49.4c0,2.4,0.3,4.8-0.3,7c-1.4,5.6-5.6,8.8-10.8,10.6c-1,0.2-2.1,0.1-3.2-0.3
				c-1.8-0.9-3.3-2-5.2-3.1c-1.6-0.7-2.5-2.4-2.3-4.3c0.2-13.6,0.5-27.1,0.8-40.6C154,155.7,154.2,155.3,154.4,155L154.4,155z
				 M155,84.4c-0.8-2.2-1.6-4.3-2.4-6.3c-1.9,1.9-3.9,3.8-5.7,5.6c-3,3-5.8,5.8-8.6,8.8c-0.7,0.6-0.9,1.7-0.4,2.5
				c5.8,12,11.5,24.1,17.1,36.1c1.6,3.4,3.5,6.7,4.8,10.2c0.9,2.1,1.3,4.7,1.3,7c-0.1,13.2-0.4,26.4-0.6,39.6
				c-0.1,4.3-0.1,8.4-0.1,12.6c0,2.7,1.2,3.7,3.8,2.6c4.2-1.4,7.5-4.6,9.4-8.6c0.5-1.6,0.7-3.5,0.6-5.2c-0.1-17.3-0.1-34.6-0.3-51.8
				c0-2.3-0.5-4.5-1.2-6.6c-5.1-13.7-10.3-27.5-15.5-41.2c-0.1-0.6,0-1.3,0.3-1.8c2.3-2.4,4.6-5,6.8-7.4c1.3-1.5,1.3-1.5,0.5-3.8
				L155,84.4z M104.9,119.5c-0.2-0.1-0.3-0.1-0.5-0.5c-5.8-0.2-5.8-0.2-7.3,5.5c-2.7,11-5.6,21.9-8.3,32.9c-1.7,6.6-3.8,13-5.1,19.7
				c-0.6,4.2-0.8,8.6-0.7,12.8c0,15.1,0.2,30,0.1,45.1c-0.1,3.1,0.7,5.3,3.8,6.4c0.5,0.3,1.1,0.5,1.5,0.8v-10.1
				c0-15.5-0.2-31.1,0.1-46.4c0.1-4.5,1.6-9.1,2.7-13.4c4.2-16.4,8.6-32.9,12.7-49.5C104.3,121.7,104.6,120.6,104.9,119.5
				L104.9,119.5z M139.1,76.5c2-3.4,3-7.3,2.5-11.3c-0.5-4.9-3.9-6.9-8.3-5.1c-3.2,1.4-6,3.8-7.9,6.8c-3,4.5-5,9.1-4.2,14.6
				c0.4,2.5,1.3,3.7,3.8,5.1l3.4-12.9l0.5-0.1c0,2.9,2.4,3,4.1,4.2c0.6,0.6,1.3,0.9,2,1.3c-0.4,1.2-0.7,2.3-1,3.7l0.5,0.4
				C136,81,137.7,78.8,139.1,76.5z M140.3,19.2c-0.6,4.6-1.3,9.3-1.9,13.7c2.6,1.3,3.5,4.2,1.1,6.4c-2.7,2.7-2.9,5.7-3.4,9.1
				c-0.6,3.2-1,6.5-1.4,10.1c3.5-0.2,6.1,1,7.5,4.6c0.7-1.6,1.1-3.1,1.5-4.6c1.1-3.8,2-7.6,3.4-11.3c1-3.1,1-6.2,0.2-9.3
				c-1.8-6.6-3.4-13.1-5-19.7c0-0.3-0.1-0.6-0.4-1.4C141.2,17.9,140.5,18.4,140.3,19.2z M120.1,31.1c-1.9,9.9-3.8,20-5.6,29.8
				c-0.1,1.1,0,2.2,0.4,3.3c1.6,3.9,3.4,7.5,5.3,11.7c1.1-4.7,3-8.7,6-11.8c1.3-1,1.8-2.9,1.3-4.6c-0.2-1.1-0.9-2.1-2-2.5h-0.2l0,0
				c-1.2-0.5-1.8-1.7-1.4-3c0.3-1.6,0.4-3.3,0.6-4.9c-2.9-0.8-4-3.1-2-5.6c1.7-2.3,1.5-4.3,1.1-6.6c-0.5-2.5-1.1-5.3-1.5-7.8
				l-0.7-0.2C120.9,29.5,120.5,30.4,120.1,31.1z M120.5,28c-1.2-0.6-2.3-1.3-3.9-2.1c-1.5-0.8-2.3-0.5-2.7,1.3
				c-0.6,3-1.2,5.8-1.7,8.6c-1.3,7.3-2.5,14.7-4.1,21.9v0.1c-0.3,0.9,0.2,1.9,1.2,2.2c1.4,0.6,2.5,1.4,4.1,2.2
				c0.6-3.3,1.2-6.2,1.7-9.2c1.4-7.2,2.6-14.5,4.1-21.6C119.4,30.2,119.9,29.1,120.5,28L120.5,28z M128.4,76.3
				c-0.6,2.4-1.2,4.6-1.7,6.8c-1,4-1.9,7.9-3.1,11.9c-0.3,1.2-0.1,2,1.1,2.6c1.2,0.6,2.3,1.4,3.9,2.2l5.2-20.6L128.4,76.3z
				 M138.8,89.4c2.6-2.4,5.6-5.1,8.2-7.8c0.3-0.4,0.4-0.8,0.3-1.2C146,76,144.5,72,142.9,68c-0.7,5-2.7,9.7-6.1,13.5
				c-0.2,0.4-0.3,0.7-0.3,1C137.3,85.1,138.2,87.4,138.8,89.4L138.8,89.4z M137.3,33.1c1.3-5.6,0.9-11.3,3.4-16.8
				c-1-0.5-2.1-1.4-3.4-2c-1.6-0.8-2.7-0.4-3.2,1.5c-0.3,1.7-0.5,3.6-0.7,5.3c-0.5,2.5-0.8,5.1-1.1,7.5c-0.2,0.9-0.2,1.6,0.8,2
				C134.5,31.2,135.7,32.2,137.3,33.1L137.3,33.1z M129.8,58.5c0.5-3.2,0.9-6,1.3-8.8c0.4-2.4,0.8-4.7,1-7c0-0.6-0.3-1.2-0.7-1.6
				c-1.3-0.8-2.7-1.5-4.4-2.5c-0.8,5.8-1.6,11.3-2.3,16.9L129.8,58.5z M124.7,87.4c-2.9-0.9-3.9-3.3-4.7-6.1l-4.8,18.7
				c2.7-0.4,5.3-0.7,7.7-1c0.2-0.1,0.7-0.3,0.7-0.5c0-0.3-0.1-0.5-0.4-0.7c-1.1-0.5-0.8-1.4-0.6-2.2C123.3,92.9,124,90.2,124.7,87.4
				L124.7,87.4z M113.5,71.5c0.4,1.1,0.7,2.2,1.1,3.4c0.1,0.5,0.4,0.8,0.7,1.1c1.2,0.8,2.6,1.5,4.4,2.5c-0.1-0.5-0.2-1.2-0.4-1.7
				c-1.8-4.3-3.5-8.6-5.7-12.5c-0.8-1.6-2.9-2.5-4.5-3.9l-0.4,0.4C110.3,64.4,111.9,68,113.5,71.5z M164,76
				c-0.2-0.2-0.4-0.4-0.6-0.5c-4.9-3.1-5-3.1-9.2,1c-0.4,0.4-0.5,1-0.4,1.5c0.5,1.5,1.2,3.1,1.8,4.8L164,76z M106.2,111.2
				c-1.7-1.1-3.1-1.9-4.6-2.4c-0.4-0.2-0.7-0.2-1.1-0.1c-2.4,0.8-4.8,1.6-7.7,2.7l4.8,2.7c0.2,0.1,0.4,0.1,0.6,0
				C100.7,113.2,103.2,112.4,106.2,111.2L106.2,111.2z M132,38.1c1.1,0.6,2.6,1.6,4.2,2.4c0.4,0.1,0.8,0.1,1.1,0
				c1.4-0.7,2.9-3.7,2.5-5.2c-0.1-0.5-0.4-0.9-0.8-1.1c-1.4-0.6-2.7-0.9-4.2-1.3L132,38.1z M94.9,113.7c-1-0.6-1.9-1.1-3.1-1.7
				c-0.2,0.5-0.4,1.1-0.5,1.6s-0.2,1-0.3,1.7l5.2,3.1C97.5,115.3,97.4,115.1,94.9,113.7z M148.4,80.6l3.7-3.6l-5.4-3.2l-0.4,0.3
				L148.4,80.6z M138,90c-0.9-2.6-1.5-4.7-2.5-7.2l-3,4.1L138,90z M133.1,88.1c-1,1.1-1,2,0.4,2.6c0.6,0.4,1.3,0.7,1.9,1.1
				c1.1,0.9,2,1,2.7-0.7L133.1,88.1z M113.3,100.6c-2.4-1.4-4.4-3.7-7.7-2C107.9,99.8,110,101.9,113.3,100.6L113.3,100.6z"/>
		</g>
	</g>
</g>
<rect x="0.1" y="0.6" class="st2" width="254.4" height="254.4"/>
</svg>
