<?xml version="1.0" encoding="UTF-8"?> <svg xmlns="http://www.w3.org/2000/svg" width="501" height="286" viewBox="0 0 501 286"><title>Isometric Grid</title><g><rect x="0.5" y="0.5" width="500" height="285" fill="#00436a"></rect><g opacity="0.15"><line x1="500.5" y1="57.5" x2="400.5" y2="0.5" fill="none" stroke="#fff" stroke-linecap="round" stroke-miterlimit="10" stroke-width="0.5"></line><line x1="500.5" y1="114.5" x2="300.5" y2="0.5" fill="none" stroke="#fff" stroke-linecap="round" stroke-miterlimit="10" stroke-width="0.5"></line><line x1="500.5" y1="171.5" x2="200.5" y2="0.5" fill="none" stroke="#fff" stroke-linecap="round" stroke-miterlimit="10" stroke-width="0.5"></line><line x1="500.5" y1="228.5" x2="100.5" y2="0.5" fill="none" stroke="#fff" stroke-linecap="round" stroke-miterlimit="10" stroke-width="0.5"></line><line x1="500.5" y1="285.5" x2="0.5" y2="0.5" fill="none" stroke="#fff" stroke-linecap="round" stroke-miterlimit="10"></line><line x1="400.5" y1="285.5" x2="0.5" y2="57.5" fill="none" stroke="#fff" stroke-linecap="round" stroke-miterlimit="10" stroke-width="0.5"></line><line x1="300.5" y1="285.5" x2="0.5" y2="114.5" fill="none" stroke="#fff" stroke-linecap="round" stroke-miterlimit="10" stroke-width="0.5"></line><line x1="200.5" y1="285.5" x2="0.5" y2="171.5" fill="none" stroke="#fff" stroke-linecap="round" stroke-miterlimit="10" stroke-width="0.5"></line><line x1="100.5" y1="285.5" x2="0.5" y2="228.5" fill="none" stroke="#fff" stroke-linecap="round" stroke-miterlimit="10" stroke-width="0.5"></line><line x1="100.5" y1="0.5" x2="0.5" y2="57.5" fill="none" stroke="#fff" stroke-linecap="round" stroke-miterlimit="10" stroke-width="0.5"></line><line x1="200.5" y1="0.5" x2="0.5" y2="114.5" fill="none" stroke="#fff" stroke-linecap="round" stroke-miterlimit="10" stroke-width="0.5"></line><line x1="300.5" y1="0.5" x2="0.5" y2="171.5" fill="none" stroke="#fff" stroke-linecap="round" stroke-miterlimit="10" stroke-width="0.5"></line><line x1="400.5" y1="0.5" x2="0.5" y2="228.5" fill="none" stroke="#fff" stroke-linecap="round" stroke-miterlimit="10" stroke-width="0.5"></line><line x1="500.5" y1="0.5" x2="0.5" y2="285.5" fill="none" stroke="#fff" stroke-linecap="round" stroke-miterlimit="10"></line><line x1="500.5" y1="57.5" x2="100.5" y2="285.5" fill="none" stroke="#fff" stroke-linecap="round" stroke-miterlimit="10" stroke-width="0.5"></line><line x1="500.5" y1="114.5" x2="200.5" y2="285.5" fill="none" stroke="#fff" stroke-linecap="round" stroke-miterlimit="10" stroke-width="0.5"></line><line x1="500.5" y1="171.5" x2="300.5" y2="285.5" fill="none" stroke="#fff" stroke-linecap="round" stroke-miterlimit="10" stroke-width="0.5"></line><line x1="500.5" y1="228.5" x2="400.5" y2="285.5" fill="none" stroke="#fff" stroke-linecap="round" stroke-miterlimit="10" stroke-width="0.5"></line><line x1="500.5" y1="0.5" x2="500.5" y2="285.5" fill="none" stroke="#fff" stroke-linecap="round" stroke-miterlimit="10"></line></g></g></svg> 