<?xml version="1.0" encoding="utf-8"?>
<!-- Generator: Adobe Illustrator 21.1.0, SVG Export Plug-In . SVG Version: 6.00 Build 0)  -->
<svg version="1.1" id="Layer_1" xmlns="http://www.w3.org/2000/svg" xmlns:xlink="http://www.w3.org/1999/xlink" x="0px" y="0px"
	 viewBox="0 0 60 83.8" style="enable-background:new 0 0 60 83.8;" xml:space="preserve">
<style type="text/css">
	.st0{fill:#FFFFFF;}
</style>
<path class="st0" d="M16,75.7c0.2,0.5-0.2,1.1-0.7,1.2l-10,2.9c-0.3,0.1-0.7,0.1-1,0.1c-0.8,0-1.5-0.3-2.2-0.8
	C0.8,78.2,0,76.5,0,74.8v-38c0-3.3,3.4-4.5,4.7-4.9l14.1-4c0.5-0.1,1.1,0.2,1.2,0.7c0.2,0.5-0.2,1.1-0.7,1.2l-14,4
	C3,34.6,2,35.5,2,36.8v38c0,1,0.5,2.2,1.3,2.7c0.5,0.3,0.9,0.5,1.4,0.3l10-2.9C15.3,74.8,15.8,75.1,16,75.7z"/>
<path class="st0" d="M58,32.7c-1-0.8-2.1-1.1-3.3-0.9l-14,4c-0.4,0.1-0.7,0.5-0.7,1v20c0,0.3,0.1,0.6,0.4,0.8
	c0.2,0.2,0.6,0.2,0.9,0.2l14-4c0.5-0.2,0.8-0.7,0.7-1.2c-0.2-0.5-0.7-0.8-1.2-0.7L42,55.5V37.6l13.2-3.8c0.7-0.1,1.3,0.2,1.6,0.5
	c0.8,0.6,1.2,1.6,1.2,2.5v38c0,1.3-1,2.2-3.3,3L41,81.7l-21-7.6V56.8c0-0.3-0.1-0.6-0.4-0.8c-0.2-0.2-0.6-0.2-0.9-0.2l-14,4
	C4.2,60,3.9,60.5,4,61c0.2,0.5,0.7,0.8,1.2,0.7L18,58.1v16.7c0,0.4,0.3,0.8,0.7,0.9l22,8c0.1,0,0.2,0.1,0.3,0.1s0.2,0,0.3,0l14.1-4
	c1.3-0.5,4.7-1.7,4.7-4.9V36.8C60,35.3,59.2,33.7,58,32.7z"/>
<path class="st0" d="M19,31.8c-0.6,0-1,0.4-1,1v18c0,0.4,0.3,0.8,0.7,0.9l18,6c0.1,0,0.2,0.1,0.3,0.1c0.2,0,0.4-0.1,0.6-0.2
	c0.3-0.2,0.4-0.5,0.4-0.8v-15c0-0.6-0.4-1-1-1s-1,0.4-1,1v13.6l-16-5.3V32.8C20,32.2,19.6,31.8,19,31.8z"/>
<path class="st0" d="M14.7,50.8l-10,3C4.2,54,3.9,54.5,4,55c0.2,0.5,0.6,0.8,1,0.8c0.1,0,0.2,0,0.3,0l10-3c0.5-0.2,0.8-0.7,0.7-1.2
	C15.8,51,15.2,50.7,14.7,50.8z"/>
<path class="st0" d="M37,77.8c0.6,0,1-0.4,1-1v-14c0-0.4-0.3-0.8-0.7-0.9l-14-4.7c-0.5-0.2-1.1,0.1-1.3,0.6
	c-0.2,0.5,0.1,1.1,0.6,1.3L36,63.5v13.3C36,77.4,36.4,77.8,37,77.8z"/>
<path class="st0" d="M41,78.8c0.6,0,1-0.4,1-1V63.6l13.3-3.8c0.5-0.2,0.8-0.7,0.7-1.2c-0.2-0.5-0.7-0.8-1.2-0.7l-14,4
	c-0.4,0.1-0.7,0.5-0.7,1v15C40,78.4,40.4,78.8,41,78.8z"/>
<g>
	<path class="st0" d="M32.4,43.9L32.4,43.9c-0.3,0-0.7-0.2-0.9-0.4l-7.7-9.6c-2-2.5-7-10.3-7-16.1c0-8.6,7-15.5,15.5-15.5
		C41,2.3,48,9.2,48,17.8c0,5.5-4.6,13.4-7,16.1l-7.7,9.6C33.1,43.8,32.8,43.9,32.4,43.9z M32.4,4.5c-7.4,0-13.3,6-13.3,13.3
		c0,4.6,4,11.5,6.5,14.7l6.8,8.5l6.8-8.5c2.3-2.6,6.5-10,6.5-14.7C45.8,10.5,39.8,4.5,32.4,4.5z"/>
</g>
<g>
	<path class="st0" d="M32.4,23.7c-3.3,0-5.9-2.7-5.9-5.9s2.7-5.9,5.9-5.9s5.9,2.7,5.9,5.9S35.7,23.7,32.4,23.7z M32.4,14.1
		c-2,0-3.7,1.7-3.7,3.7s1.7,3.7,3.7,3.7c2,0,3.7-1.7,3.7-3.7S34.5,14.1,32.4,14.1z"/>
</g>
</svg>
