<?xml version="1.0" encoding="UTF-8"?> <svg xmlns="http://www.w3.org/2000/svg" width="254.43" height="254.43" viewBox="0 0 254.43 254.43"><title>Power Tools</title><g><g><path d="M206.52,29.6a10.9,10.9,0,0,0-.94-1.37l-.06,0a21.54,21.54,0,0,0-1-2.55l-.22-.5a.69.69,0,0,1,0-.38c.49-1.48-1.41-3.86-1.79-4.33a3.28,3.28,0,0,1-.22-.26,27.7,27.7,0,0,0-2.07-2.29l-.32-.31a22.14,22.14,0,0,0-4-3c0-.15,0-.32-.06-.48a10.83,10.83,0,0,0-.18-1.24,2.34,2.34,0,0,0-1.08-1.62L189,8a3.93,3.93,0,0,0-5.22,2l-.09.14a25.06,25.06,0,0,0-4.35-.14c-.36,0-1.55.11-1.57.12h0a25.9,25.9,0,0,0-4.9.84s-.06,0-.09.07a7.55,7.55,0,0,0-2.43.7h0l-.13,0a.44.44,0,0,0-.2.05,38.05,38.05,0,0,0-6.3,2.65l-16.9,9.68-.09-.07a4.4,4.4,0,0,0-1.36-1,3.89,3.89,0,0,0-3.67.1l-6.29,3.66a.66.66,0,0,0-.34.21H135l-7.34,4.23,0,0a3.15,3.15,0,0,0-.85,3.35,2,2,0,0,1,0,1.23L112.67,44c-.57.31-1.14.67-1.69,1s-.82.51-1.23.75a5.39,5.39,0,0,0-2.26,1.93l-.55.33c-1.28.7-5.44,3.2-7.2,4.35a.22.22,0,0,0-.09.12c-.26.11-.51.22-.77.35-.83.56-.88.58-.93.61s-.24.14-3.89,2.57a2.65,2.65,0,0,1-.26.21c-.15.11-.3.22-.44.34l-.37.25h0s-.17.14-.28.23h0c-.08.08-.47.39-.64.52l-.22.17-.13.1-.08.06-.06,0-.13.09c-.41.3-2.12,1.55-9,6.43a1.24,1.24,0,0,0-.5,1.16v0a.22.22,0,0,0,.05.14,10.2,10.2,0,0,0-1.49.92,8.51,8.51,0,0,0-3.38,3.47l-4.69,2.7c-.11.06-.19.13-.29.19l-.1.07c-.16.1-.32.2-.47.31a8.67,8.67,0,0,0-3,4L62,81.27l-.18.12-.07,0s0,0,0,0a8,8,0,0,0-2.66,2.79L57,87.89a7.89,7.89,0,0,0-.44.85l-.09.18h0c-.06.07-.11.15-.19.24l-3.78,5.28a6.22,6.22,0,0,0-.35.54A7.88,7.88,0,0,0,51,98.89a9.78,9.78,0,0,0,0,1.19l-2.23,1.77s0,0,0,.05a3.08,3.08,0,0,0-.74.82c-1,1.6-1,4.16.08,6.85a14.12,14.12,0,0,0,1.13,2.27c1.85,3.06,4.55,5,6.82,5l.34,0a3.15,3.15,0,0,0,1.3-.41h0l.09,0,2.12-.89,0,0a8.9,8.9,0,0,0,4.68,1.57,4.41,4.41,0,0,0,.52,0l.15,0h.09l6.72-.65.29,0h0a9.56,9.56,0,0,0,1.15.07h4.21a7.82,7.82,0,0,0,3.73-.89.1.1,0,0,0,.07,0s0,0,.08-.06l.16-.07,6.56-3.79a9.27,9.27,0,0,0,1.47.11q.43,0,.84,0a7.76,7.76,0,0,0,3.27-1l.29-.13L98.76,108h.45c.3,0,.6,0,.89,0a8.66,8.66,0,0,0,2-.41l.07,0h.19l.53-.08s0,0,0,.06l1.52,1L110,111.8l.13.06a23.51,23.51,0,0,1-.45,4c-.38,2.2-.68,3.94,1.06,4.81l9,5.2a3.24,3.24,0,0,0,1.48.37,2.83,2.83,0,0,0,.41,0h.08a3.27,3.27,0,0,0,1.41-.62v.22a4.2,4.2,0,0,0,.05.51h0a4.36,4.36,0,0,0,0,.53c0,.11,0,.33,0,.57s0,.75.07,1,.07.37.11.54a1.85,1.85,0,0,0,0,.45v.06c0,.18.23,1.34.3,1.54s0,.17.07.25l.15.72a31.47,31.47,0,0,0,2.25,5.76.13.13,0,0,0,.07.06s0,0,0,.05a1.4,1.4,0,0,0,.2.41l0,.09a.75.75,0,0,0,.07.15l.09.19c.12.24.31.65.44.87a.47.47,0,0,0,.09.17l.12.19v0l0,.08a1.11,1.11,0,0,0,.11.27s.43.89.48,1,.11.19.17.29,0,.06,0,.08l.1.3c.12.26.15.32.22.49s.1.27.21.51a.74.74,0,0,0,.07.21.83.83,0,0,0,.05.18l0,.12c.06.21.1.32.13.41a1.74,1.74,0,0,1,.13.5.11.11,0,0,0,0,.06l.09.2h0a.56.56,0,0,0,0,.27.66.66,0,0,0,0,.11c0,.08,0,.15,0,.22h0v0a1.11,1.11,0,0,0,0,.17L104,160l0,0-.09.08a1.82,1.82,0,0,0-.29,2.57l-1.11.64a24,24,0,0,0-7.65,7.41c-.48.65-1.33,2-2,3.13-.34.55-.64,1-.82,1.3a1.54,1.54,0,0,0-.06,1.22.69.69,0,0,0-.77.35.48.48,0,0,1-.16.16.22.22,0,0,0-.1.09,124.66,124.66,0,0,0-10.79,23.62,22.26,22.26,0,0,0-1.19,7V224.2a7,7,0,0,0,2.57,5.61l0,0,.82.67a4.5,4.5,0,0,0,2.72.86,1.89,1.89,0,0,0,.83.9l.3.17a3.39,3.39,0,0,0,1.19.43l.1,0,1.12.78h0c.21.52.31.62.52.77a2,2,0,0,1,.27.23.18.18,0,0,0,.09.06l.28.15a3.92,3.92,0,0,0,1.25.44h0c.34.23.79.52,1.13.72a5,5,0,0,0,.35.55l0,.06A1.64,1.64,0,0,0,93,237l.05,0,.32.16a2.72,2.72,0,0,0,1.08.39l.26.06.33.2c.92.55,2.3,1.38,3.35,1.93a3.55,3.55,0,0,0,.65.71l.06,0,.36.19a3.17,3.17,0,0,0,1.46.41l.26.14.86.43a1.62,1.62,0,0,0,.63.64l.32.18.06,0a3.17,3.17,0,0,0,1.56.38l1,.48a1.68,1.68,0,0,0,.64.63l.38.22c.59.19.9.3,1.09.34a3.19,3.19,0,0,0,1.26,1.31l1.12.42a5.18,5.18,0,0,0,2.31.47,7.47,7.47,0,0,0,3.84-1l7.72-4.45a3.76,3.76,0,0,0,3.16-.29h0a2.42,2.42,0,0,0,.47,0,3.51,3.51,0,0,0,1.77-.48l53.82-31.25a6.36,6.36,0,0,0,2.85-5.11V203h0a7.93,7.93,0,0,0,.21-1.83v-9.94c0-3.06-1.53-5.21-2.94-5.91l-2.64-1.53-.05,0a4,4,0,0,1-1.88-2.72,5.44,5.44,0,0,0,1.76-3.84v-2.44a1.74,1.74,0,0,0-.13-.6,1.85,1.85,0,0,0-.72-1.1,18.94,18.94,0,0,0,1.06-5.18,2.57,2.57,0,0,0,.51-.75,2.2,2.2,0,0,1,.09-.21,2.15,2.15,0,0,0,.17-.87v-2.8a2,2,0,0,0-.7-1.56l0,0c-.5-3.79-1.18-6.4-5-9.56l-2.87-2.3-.46-.37h0l0,0a56.32,56.32,0,0,0-7-4.71,11.1,11.1,0,0,0-1.22-.7,6.41,6.41,0,0,1-.61-.33c0-3,.08-6.57.17-9.21,0-1.36.07-2.44.07-3v-.38a18.62,18.62,0,0,0,.42-2.42c.88-4.83-.86-9.92-2.14-13.64-.35-1-.68-2-.91-2.83a32.59,32.59,0,0,1-2-8.17s0,0,0,0,0,0,0,0a.19.19,0,0,0-.08-.1h0a.2.2,0,0,0-.15-.06l-.79,0,.53-.38a.94.94,0,0,0,.39-.79v-.5c-.09-4.36-.19-8.87,3.11-15.53a1.5,1.5,0,0,0,.16-.7v-1h.61a.25.25,0,0,0,.15-.06l0,0s0,0,0,0c.2-.34.33-.53.35-.56,4-5.82,9.51-8.84,12.79-10.64.48-.26.92-.5,1.31-.73,4.32-2.88,5.06-5.2,5.83-7.89l10.8-6.23a25.61,25.61,0,0,0,9.24-10.19l.27-.52s0,0,0-.06,0,0,0-.07a0,0,0,0,1,0,0,.43.43,0,0,0,0-.07s0,0,0-.06h0l-1.4-1.11a17,17,0,0,0,3.24-3.36s0,0,0,0a.19.19,0,0,0,.05-.1l.53-3.14s0,0,0,0a.15.15,0,0,0,0-.07.22.22,0,0,0-.05-.08l0,0-1.17-.85c1-1.07,1.61-1.9,1.67-2s0,0,0-.06a.15.15,0,0,0,0-.07,19.79,19.79,0,0,0,0-2.43v0s0-.07,0-.1,0,0,0,0V34.1l.06,0a1.76,1.76,0,0,0,.17-.29C207.57,32.9,207.11,30.47,206.52,29.6Z" fill="#08436a" stroke="#fff" stroke-miterlimit="10" stroke-width="2"></path><g><path d="M156,80.5c.26.88.52,2.34-.27,2.6" fill="none" stroke="#fff" stroke-linecap="round" stroke-linejoin="round" stroke-width="0.7"></path><path d="M82.22,65.7v0a1,1,0,0,1,.41-1c12.5-9,8.11-5.87,9.08-6.52A3.72,3.72,0,0,0,92,58s.89-.69.89-.74" fill="none" stroke="#fff" stroke-linecap="round" stroke-linejoin="round" stroke-width="0.7"></path><path d="M106.2,51.87c7.9,1.13,13.48,8.27,18,14.24C129.06,74,131.83,83,129.3,91.87" fill="none" stroke="#fff" stroke-linecap="round" stroke-linejoin="round" stroke-width="0.7"></path><line x1="93.15" y1="57.04" x2="93.15" y2="57.04" fill="none" stroke="#fff" stroke-linecap="round" stroke-linejoin="round" stroke-width="0.7"></line><path d="M177.84,10.34s1.2-.11,1.54-.11a24.27,24.27,0,0,1,4.46.16" fill="none" stroke="#fff" stroke-linecap="round" stroke-linejoin="round" stroke-width="0.7"></path><path d="M205.4,28.38a9.68,9.68,0,0,1,.91,1.33c.57.84,1,3.19.25,4a1.08,1.08,0,0,1-.13.24" fill="none" stroke="#fff" stroke-linecap="round" stroke-linejoin="round" stroke-width="0.7"></path><path d="M147.92,24.67a1.67,1.67,0,0,1-1.38-.47,4.08,4.08,0,0,0-1.25-.94,3.63,3.63,0,0,0-3.47.09L135.48,27c-.26.09-.22.18-.36.25" fill="none" stroke="#fff" stroke-linecap="round" stroke-linejoin="round" stroke-width="0.7"></path><path d="M146.79,24.42l17-9.76A38.9,38.9,0,0,1,170.09,12c.07,0,.23,0,.34-.07" fill="none" stroke="#fff" stroke-linecap="round" stroke-linejoin="round" stroke-width="0.7"></path><path d="M144.22,94.5a1.39,1.39,0,0,0-.12-.28c-.46-.78-.67-.8-2.78-2a1.89,1.89,0,0,0-1.79.25l-5,2.89c-1.78.89-2.87,3.76-3,5a1.8,1.8,0,0,0,.66,1.89l1.86,1.08a3.15,3.15,0,0,0,.75.25" fill="none" stroke="#fff" stroke-linecap="round" stroke-linejoin="round" stroke-width="0.7"></path><path d="M114.21,45.53a1.3,1.3,0,0,1,.45-.47l60.18-34.31" fill="none" stroke="#fff" stroke-linecap="round" stroke-linejoin="round" stroke-width="0.7"></path><path d="M107.66,47.91A5,5,0,0,1,109.87,46c.95-.55,1.93-1.22,2.91-1.77L126.93,36" fill="none" stroke="#fff" stroke-linecap="round" stroke-linejoin="round" stroke-width="0.7"></path><path d="M135.1,27.23l-7.34,4.22c-1.9,1.9-.23,3.42-.79,4.52,0,.06-.17.29-.26.29" fill="none" stroke="#fff" stroke-linecap="round" stroke-linejoin="round" stroke-width="0.7"></path><path d="M109.4,104.66c2.84,1.62,8.5,1.83,12.13-.25l3.36-1.92c3.86-2.9,4.33-4,5.69-6.27a20.53,20.53,0,0,1,1.48-2.39l.94,0" fill="none" stroke="#fff" stroke-linecap="round" stroke-linejoin="round" stroke-width="0.7"></path><line x1="48.88" y1="102.03" x2="54.48" y2="97.59" fill="none" stroke="#fff" stroke-linecap="round" stroke-linejoin="round" stroke-width="0.7"></line><line x1="63.82" y1="113.64" x2="57.65" y2="116.21" fill="none" stroke="#fff" stroke-linecap="round" stroke-linejoin="round" stroke-width="0.7"></line><path d="M88.4,111.31a9,9,0,0,0,5.67-1l8.39-4.6" fill="none" stroke="#fff" stroke-linecap="round" stroke-linejoin="round" stroke-width="0.7"></path><path d="M68.9,77.57a9,9,0,0,1,3.7-4.43l8.08-4.66" fill="none" stroke="#fff" stroke-linecap="round" stroke-linejoin="round" stroke-width="0.7"></path><path d="M102.17,107.39h.16a8.7,8.7,0,0,0,2.62-.7L115.33,102c1.53-.73,2.7-1.21,4.17-2,1.12-.49,3.46-1.6,5.15-2.51,3.61-1.44,5.64-7,5.64-11,0-18.21-17.62-40.27-31.28-33.44-2.21,1.47,1-.73-4.79,3.15a9.68,9.68,0,0,1-1.07.81l-.45.38" fill="none" stroke="#fff" stroke-linecap="round" stroke-linejoin="round" stroke-width="0.7"></path><path d="M131.94,86.79c.57.19,4.4-2.07,6.94-3.53l2-1.12c.49-.25.36-.65.36-3.27a1.14,1.14,0,0,0-.22-.7,1.4,1.4,0,0,0-.12-.18" fill="none" stroke="#fff" stroke-linecap="round" stroke-linejoin="round" stroke-width="0.7"></path><path d="M99.86,52.61c1.76-1.15,5.93-3.65,7.19-4.35l2.48-1.45C123.14,40,141,62.9,141,78.17" fill="none" stroke="#fff" stroke-linecap="round" stroke-linejoin="round" stroke-width="0.7"></path><path d="M125.5,97,129,95.12c2.08-1,4.27-3.5,5.39-8a4.85,4.85,0,0,1,1.35-2.06l4.68-2.69" fill="none" stroke="#fff" stroke-linecap="round" stroke-linejoin="round" stroke-width="0.7"></path><path d="M51.23,100.62a9.32,9.32,0,0,1,1.48-6l3.78-5.28a6.07,6.07,0,0,1,1.88-1.72l.4-.23c7.39-3.69,17.71,6.43,19.5,18.94,0,2.36.24,6.7-3.45,8.91l-.38.23a6.45,6.45,0,0,1-2.41.76l-6.5.65a9.09,9.09,0,0,1-6-1.75" fill="none" stroke="#fff" stroke-linecap="round" stroke-linejoin="round" stroke-width="0.7"></path><path d="M72.38,116.15a8.83,8.83,0,0,0,1.12.07h4.21a7.49,7.49,0,0,0,3.92-1L95,107.5" fill="none" stroke="#fff" stroke-linecap="round" stroke-linejoin="round" stroke-width="0.7"></path><path d="M56.71,89c.11-.21.26-.58.52-1l2.08-3.65a7.7,7.7,0,0,1,2.84-2.88l13.38-7.72" fill="none" stroke="#fff" stroke-linecap="round" stroke-linejoin="round" stroke-width="0.7"></path><path d="M183.41,10.74s.11,0,.16-.09c.5,0,1.24-3.84,5.39-2.46l5.6,3.25a2.05,2.05,0,0,1,1,1.45c.13.37.22,1.79.32,2.17a4.09,4.09,0,0,0,1.21,2" fill="none" stroke="#fff" stroke-linecap="round" stroke-linejoin="round" stroke-width="0.7"></path><path d="M127,122.59a6.52,6.52,0,0,0,3.68-.16,1.72,1.72,0,0,1,.49-.13l-.09,0c4.16-1.39,3.45-2.27,6.36-5.17a4.44,4.44,0,0,1,1.21-.94l6.87-4a8.63,8.63,0,0,0,3.92-6.78V91.67A13.64,13.64,0,0,1,153,83.1l.38-.39" fill="none" stroke="#fff" stroke-linecap="round" stroke-linejoin="round" stroke-width="0.7"></path><path d="M145.13,127.6a.65.65,0,0,1,.29-.62l11.78-6.79,0,0h0l0,0h0" fill="none" stroke="#fff" stroke-linecap="round" stroke-linejoin="round" stroke-width="0.7"></path><path d="M146.7,124.36a1.2,1.2,0,0,1,.58-.78l9.27-5.36" fill="none" stroke="#fff" stroke-linecap="round" stroke-linejoin="round" stroke-width="0.7"></path><path d="M148.31,121.11c0-.08,0-.29.29-.63l7-4" fill="none" stroke="#fff" stroke-linecap="round" stroke-linejoin="round" stroke-width="0.7"></path><path d="M124.67,133.51a5.31,5.31,0,0,0,2.33,2.42l5.26,3c2.15,1.43,8.41,2.37,13-.23l12.47-7.18,0,0c.09,0,0,0,.07,0" fill="none" stroke="#fff" stroke-linecap="round" stroke-linejoin="round" stroke-width="0.7"></path><path d="M123.62,128.84a3.47,3.47,0,0,0,0,.53c0,.19.23,1.32.29,1.52a5,5,0,0,0,2.53,3l5.26,3.05a13.86,13.86,0,0,0,12.81-.11l14.37-8.31" fill="none" stroke="#fff" stroke-linecap="round" stroke-linejoin="round" stroke-width="0.7"></path><path d="M123.41,126.28s0,.19,0,.52.06,1.18.11,1.52c.26,1.77,1.23,2.48,2.65,3.43l5.26,3c4.52,2.26,10,1.71,12.65,0l15-8.69" fill="none" stroke="#fff" stroke-linecap="round" stroke-linejoin="round" stroke-width="0.7"></path><line x1="147.92" y1="24.67" x2="166.85" y2="13.72" fill="none" stroke="#fff" stroke-linecap="round" stroke-linejoin="round" stroke-width="0.7"></line><path d="M192.25,16.68a2.38,2.38,0,0,1-.08-3.56c.72-.73,1.59-.76,1.76-.59" fill="none" stroke="#fff" stroke-linecap="round" stroke-linejoin="round" stroke-width="0.7"></path><line x1="202.4" y1="20.59" x2="202.4" y2="20.59" fill="none" stroke="#fff" stroke-linecap="round" stroke-linejoin="round" stroke-width="0.7"></line><line x1="124.89" y1="134.21" x2="124.91" y2="134.21" fill="none" stroke="#fff" stroke-linecap="round" stroke-linejoin="round" stroke-width="0.7"></line><path d="M123.37,125.12v.65c0,1.69,1.27,2.79,2.66,3.71l5.26,3.05c5.24,2.62,10.84,1.18,12.61,0l14.62-8.44s0,0,.09,0" fill="none" stroke="#fff" stroke-linecap="round" stroke-linejoin="round" stroke-width="0.7"></path><path d="M143.11,130.79a.64.64,0,0,1,.31-.54c2.37-1.36,9.9-5.48,14.45-8.11" fill="none" stroke="#fff" stroke-linecap="round" stroke-linejoin="round" stroke-width="0.7"></path><path d="M151.73,153.64l-1.43.83c-2.94,2-8.37,2.12-12.6,0l-5.26-3.05c-1.32-.88-2.67-2-2.67-3.65a10.18,10.18,0,0,0-.06-1.11c0-.23,0-.07,0-.39" fill="none" stroke="#fff" stroke-linecap="round" stroke-linejoin="round" stroke-width="0.7"></path><path d="M151.94,151.2l-1.77,1a14.05,14.05,0,0,1-12.67,0l-5.26-3c-1.28-.85-2.31-1.62-2.62-3.31-.4-2.16.19.84-.18-1,0-.21-.05-.1-.05-.34" fill="none" stroke="#fff" stroke-linecap="round" stroke-linejoin="round" stroke-width="0.7"></path><line x1="172.22" y1="149.59" x2="172.22" y2="149.59" fill="none" stroke="#fff" stroke-linecap="round" stroke-linejoin="round" stroke-width="0.7"></line><path d="M152.11,148.76l-2.28,1.32c-2.13,1.42-7.76,2.62-12.78.11l-5.26-3a4.91,4.91,0,0,1-2.51-2.89,4.55,4.55,0,0,0-.27-.94,2.17,2.17,0,0,1-.09-.31" fill="none" stroke="#fff" stroke-linecap="round" stroke-linejoin="round" stroke-width="0.7"></path><path d="M152.41,146.3c-.08,0-.06,0-.09,0l-3,1.72c-4.77,2.39-10.22,2-12.94.18l-5.26-3a5.06,5.06,0,0,1-2.29-2.37,10.94,10.94,0,0,0-.44-1.06c-.14-.42-.08-.33-.11-.33" fill="none" stroke="#fff" stroke-linecap="round" stroke-linejoin="round" stroke-width="0.7"></path><path d="M152.72,143.77c-.05,0,0,0-.07,0l-4,2.31a14.5,14.5,0,0,1-13.1.26l-5.24-3a5.09,5.09,0,0,1-2.21-2.24l-.47-1c-.16-.32-.06-.15-.16-.36" fill="none" stroke="#fff" stroke-linecap="round" stroke-linejoin="round" stroke-width="0.7"></path><path d="M126.57,138c.16.31.09.19.18.38s.37.79.54,1.07a.41.41,0,0,0,.06.14c1,1.62,1.25,1.36,2.09,2l5.24,3c5.09,2.55,11.1,1.15,13.18-.33l5.44-3.14" fill="none" stroke="#fff" stroke-linecap="round" stroke-linejoin="round" stroke-width="0.7"></path><path d="M126.46,137.72c.21.84,2,2,2.06,2l5.26,3A14.7,14.7,0,0,0,147,142.4l7.36-4.25" fill="none" stroke="#fff" stroke-linecap="round" stroke-linejoin="round" stroke-width="0.7"></path><path d="M125.54,135.78a5.62,5.62,0,0,0,2.15,2.08l5.26,3a14.32,14.32,0,0,0,13.12-.31l9.83-5.67" fill="none" stroke="#fff" stroke-linecap="round" stroke-linejoin="round" stroke-width="0.7"></path><path d="M126.37,137.54a30.89,30.89,0,0,1-2.22-5.68l-.27-1.29" fill="none" stroke="#fff" stroke-linecap="round" stroke-linejoin="round" stroke-width="0.7"></path><line x1="106.96" y1="202.51" x2="106.96" y2="202.51" fill="none" stroke="#fff" stroke-linecap="round" stroke-linejoin="round" stroke-width="0.7"></line><line x1="93.21" y1="193.98" x2="93.21" y2="193.98" fill="none" stroke="#fff" stroke-linecap="round" stroke-linejoin="round" stroke-width="0.7"></line><line x1="93.21" y1="195.64" x2="93.21" y2="195.64" fill="none" stroke="#fff" stroke-linecap="round" stroke-linejoin="round" stroke-width="0.7"></line><line x1="106.96" y1="204.17" x2="106.96" y2="204.17" fill="none" stroke="#fff" stroke-linecap="round" stroke-linejoin="round" stroke-width="0.7"></line><line x1="93.21" y1="198.93" x2="93.21" y2="198.93" fill="none" stroke="#fff" stroke-linecap="round" stroke-linejoin="round" stroke-width="0.7"></line><line x1="86.57" y1="206.16" x2="86.54" y2="206.16" fill="none" stroke="#fff" stroke-linecap="round" stroke-linejoin="round" stroke-width="0.7"></line><path d="M156.35,115.74a4.06,4.06,0,0,1,.42.33,2.76,2.76,0,0,1,.52.9c1.77,5.31,2.66,7.93,2.66,8a7.15,7.15,0,0,1,.16,3.36,13.54,13.54,0,0,1-1.28,3.62l-2.24,4.21c-2.41,4.82-3.15,8.73-3.15,10.21l-.65,8.24c0,.18-.17,4.36-6.38,5.33-3,.46-6.39.27-9-1.26-1.51-.89-4.06-2.38-5.22-3-.07,0-3.1-1.84-2.64-4.14.29-2.49.16-3,.25-3.31" fill="none" stroke="#fff" stroke-linecap="round" stroke-linejoin="round" stroke-width="0.7"></path><line x1="160.94" y1="112.25" x2="160.96" y2="112.25" fill="none" stroke="#fff" stroke-linecap="round" stroke-linejoin="round" stroke-width="0.7"></line><path d="M160.8,151.36l.18.11c.79.79,2.9-1.91,2.51-3.9-.4-4.45.09-13.95.09-16.14V131" fill="none" stroke="#fff" stroke-linecap="round" stroke-linejoin="round" stroke-width="0.7"></path><path d="M129.62,145.45l-25.53,14.73c-.35.36-1.26,1-.22,2.57" fill="none" stroke="#fff" stroke-linecap="round" stroke-linejoin="round" stroke-width="0.7"></path><path d="M107,207.48h0Z" fill="none" stroke="#fff" stroke-linecap="round" stroke-linejoin="round" stroke-width="0.7"></path><line x1="103.54" y1="217.4" x2="103.54" y2="217.4" fill="none" stroke="#fff" stroke-linecap="round" stroke-linejoin="round" stroke-width="0.7"></line><path d="M163.47,131.5c-.56,5.51-2.7,6.17-3.39,15l-.29,3.85a2.43,2.43,0,0,0,.41,1.75l.06.07c.05.1.24.18.27.22a2.46,2.46,0,0,0,2.65-.78,3,3,0,0,0,.4-3.29" fill="none" stroke="#fff" stroke-linecap="round" stroke-linejoin="round" stroke-width="0.7"></path><path d="M179.32,173.16a18.89,18.89,0,0,0,1.16-6.4c.05-1,0-.62,0-1.68v-3c-.49-3.91-1-6.59-4.94-9.85L172.73,150s-.51-.4-.51-.4a57.24,57.24,0,0,0-6.94-4.7c-1-.62-1.24-.66-1.93-1.08" fill="none" stroke="#fff" stroke-linecap="round" stroke-linejoin="round" stroke-width="0.7"></path><path d="M178.58,172.74l.71.42c.63.21.92,1.19.92,1.9v2.13a5.36,5.36,0,0,1-2.51,4.34l-24.33,14.06a2.23,2.23,0,0,1-2.13.16l-1.86-1.1c-.55-.18-.91-1.23-.91-1.9v-1.69" fill="none" stroke="#fff" stroke-linecap="round" stroke-linejoin="round" stroke-width="0.7"></path><path d="M106.94,207.48a.37.37,0,0,1-.34,0L93.39,199.8c-.09,0-.16-.14-.2-.18-.2-.2-.14-.36,0-.69" fill="none" stroke="#fff" stroke-linecap="round" stroke-linejoin="round" stroke-width="0.7"></path><path d="M107,202.51c-.07.07-.31,0-.36,0l-13.21-7.64a.59.59,0,0,1-.18-.87" fill="none" stroke="#fff" stroke-linecap="round" stroke-linejoin="round" stroke-width="0.7"></path><path d="M107,205.82s-.1.09-.36,0l-13.21-7.61c-.47-.24-.3-.88-.18-.88" fill="none" stroke="#fff" stroke-linecap="round" stroke-linejoin="round" stroke-width="0.7"></path><path d="M107,204.17c-.07.07-.25,0-.36,0l-13.21-7.61a.59.59,0,0,1-.18-.87" fill="none" stroke="#fff" stroke-linecap="round" stroke-linejoin="round" stroke-width="0.7"></path><path d="M119.52,100c10.58-5.11,5.89-27.83-7.7-39.64-6.36-5.54-13.1-7.1-17.54-4.08" fill="none" stroke="#fff" stroke-linecap="round" stroke-linejoin="round" stroke-width="0.7"></path><path d="M118.66,100.43c11.3-4,7.83-27.78-7.21-40.45-6.69-5.64-13.67-6.87-18-3.17" fill="none" stroke="#fff" stroke-linecap="round" stroke-linejoin="round" stroke-width="0.7"></path><path d="M183.7,10.57a25.78,25.78,0,0,0-10.74.62" fill="none" stroke="#fff" stroke-linecap="round" stroke-linejoin="round" stroke-width="0.7"></path><path d="M170.15,12.14a25.6,25.6,0,0,0-3.25,1.57" fill="none" stroke="#fff" stroke-linecap="round" stroke-linejoin="round" stroke-width="0.7"></path><path d="M191.56,15.58a4.55,4.55,0,0,0,1.12-2.87" fill="none" stroke="#fff" stroke-linecap="round" stroke-linejoin="round" stroke-width="0.7"></path><path d="M92.27,176.56a1.22,1.22,0,0,1-.11-1.32c.49-.72,2.1-3.42,2.82-4.38a23.49,23.49,0,0,1,7.57-7.35L105,162.1a7.24,7.24,0,0,1,1.68.72l6.49,3.51c1.81,1,5,2.77,6.87,3.85,1,.58,14.58,8.78,14.58,8.78,2.66,1.78,7.18,5,9.11,7.54l2.66,3.16a4.32,4.32,0,0,0,2.65,1.48h.85" fill="none" stroke="#fff" stroke-linecap="round" stroke-linejoin="round" stroke-width="0.7"></path><path d="M103.44,161.07c.63-.39,1-.53,3.23.57.25.25,16.31,9,27.74,16,4.33,2.66,7.71,5.56,9.31,7.69a47.1,47.1,0,0,0,4.58,5.41c.68.57.92.41,1.58.41" fill="none" stroke="#fff" stroke-linecap="round" stroke-linejoin="round" stroke-width="0.7"></path><path d="M180.43,167.77a2.47,2.47,0,0,0,.52-.72,2.41,2.41,0,0,0,.25-1v-2.8a1.83,1.83,0,0,0-.7-1.45" fill="none" stroke="#fff" stroke-linecap="round" stroke-linejoin="round" stroke-width="0.7"></path><path d="M87.6,206.88l-2.19,1.27a1.07,1.07,0,0,1-1.14,0l-1.67-1.17a1.29,1.29,0,0,1-.49-1.48c.71-2.08,2.49-7.14,5.31-13.48h0a11.23,11.23,0,0,1,4.38-5.08s2.58-1.48,2.53-1.48c.31-.13,2.22-1.2,3.54-.76a2.9,2.9,0,0,1,1,.45,54.47,54.47,0,0,0,6.54,4.25,67.35,67.35,0,0,0,7.45,3.83c3.75,1.87,2.89,8.29,1.1,12.22-2,4.39-3.45,8.25-5.08,12.74-.74,2-2.12,2.66-2.87,2.31l-2.17-1.05a1.06,1.06,0,0,1-.56-1.26c0-.11.27-.85.29-.92.13-.51.29-1.17-.4-1.5l-1.39-.65c-3.08-1.46-6.25-3.21-7.39-3.87-1.32-.76-4.75-2.88-6.71-4.28-1.24-.87-1.12-.8-1.17-.76" fill="none" stroke="#fff" stroke-linecap="round" stroke-linejoin="round" stroke-width="0.7"></path><path d="M103.25,218.34l-2.61-1.22c-3.08-1.47-6.24-3.22-7.39-3.88-1.31-.76-4.75-2.88-6.71-4.27-1.23-.88-1.12-.81-1.17-.76" fill="none" stroke="#fff" stroke-linecap="round" stroke-linejoin="round" stroke-width="0.7"></path><path d="M107,207.47h0Z" fill="none" stroke="#fff" stroke-linecap="round" stroke-linejoin="round" stroke-width="0.7"></path><path d="M88.71,223.76s0,0,0,0,0,0,0,0a.64.64,0,0,0-.29.51s0,7.71,0,7.71a5.19,5.19,0,0,0,.06.8c.58,1.74.52,1.26,1,1.77a3.51,3.51,0,0,1,.34.18,4,4,0,0,0,1.25.43" fill="none" stroke="#fff" stroke-linecap="round" stroke-linejoin="round" stroke-width="0.7"></path><path d="M130.27,224.19a.52.52,0,0,0-.27-.45" fill="none" stroke="#fff" stroke-linecap="round" stroke-linejoin="round" stroke-width="0.7"></path><path d="M132.44,221.28a.5.5,0,0,0-.27-.45" fill="none" stroke="#fff" stroke-linecap="round" stroke-linejoin="round" stroke-width="0.7"></path><path d="M85.13,221.7s.05,0,.05-.07a.6.6,0,0,0-.32.5v7.38a3,3,0,0,0,.07.78,2.46,2.46,0,0,0,1,1.77l.32.18a3.6,3.6,0,0,0,1.25.43" fill="none" stroke="#fff" stroke-linecap="round" stroke-linejoin="round" stroke-width="0.7"></path><path d="M134.63,219.89a.52.52,0,0,0-.26-.45" fill="none" stroke="#fff" stroke-linecap="round" stroke-linejoin="round" stroke-width="0.7"></path><path d="M92.31,225.82a.6.6,0,0,0-.28.47v8a4.83,4.83,0,0,0,.09.85,2.88,2.88,0,0,0,.62,1.38,2.53,2.53,0,0,0,.39.32l.33.18a3.81,3.81,0,0,0,1.3.42" fill="none" stroke="#fff" stroke-linecap="round" stroke-linejoin="round" stroke-width="0.7"></path><path d="M98.38,229.33a.65.65,0,0,0-.29.47v8a6.14,6.14,0,0,0,.12.92,2.37,2.37,0,0,0,1,1.61l.34.18a3,3,0,0,0,1.43.4" fill="none" stroke="#fff" stroke-linecap="round" stroke-linejoin="round" stroke-width="0.7"></path><path d="M102,231.35c0,.05,0,0,0,0h0s0,0,0,0a.55.55,0,0,0-.26.47v7.72a3.25,3.25,0,0,0,.09.94c.07.23.28,1.25,1,1.59l.31.18a3.05,3.05,0,0,0,1.55.38" fill="none" stroke="#fff" stroke-linecap="round" stroke-linejoin="round" stroke-width="0.7"></path><line x1="98.88" y1="185.12" x2="98.79" y2="185.07" fill="none" stroke="#fff" stroke-linecap="round" stroke-linejoin="round" stroke-width="0.7"></line><line x1="88.71" y1="233.47" x2="87.33" y2="232.51" fill="none" stroke="#fff" stroke-linecap="round" stroke-linejoin="round" stroke-width="0.7"></line><path d="M136.8,218.64a.51.51,0,0,0-.26-.45" fill="none" stroke="#fff" stroke-linecap="round" stroke-linejoin="round" stroke-width="0.7"></path><line x1="105.75" y1="243.21" x2="104.3" y2="242.52" fill="none" stroke="#fff" stroke-linecap="round" stroke-linejoin="round" stroke-width="0.7"></line><path d="M100.67,240.75c.85.4.3.18,1.48.74" fill="none" stroke="#fff" stroke-linecap="round" stroke-linejoin="round" stroke-width="0.7"></path><path d="M90.91,235c.31.22,1,.68,1.45.94" fill="none" stroke="#fff" stroke-linecap="round" stroke-linejoin="round" stroke-width="0.7"></path><line x1="98.68" y1="239.67" x2="98.68" y2="239.67" fill="none" stroke="#fff" stroke-linecap="round" stroke-linejoin="round" stroke-width="0.7"></line><path d="M94.54,237.28c.75.44,2.66,1.62,4,2.3" fill="none" stroke="#fff" stroke-linecap="round" stroke-linejoin="round" stroke-width="0.7"></path><path d="M107.83,244.37c-.14,0,.37.16-1.16-.35l-.34-.21c-.7-.35-.92-1.46-1-1.58a5.22,5.22,0,0,1-.09-.92v-7.37a.57.57,0,0,1,.29-.46s0,0,0,0,0,0,0,0" fill="none" stroke="#fff" stroke-linecap="round" stroke-linejoin="round" stroke-width="0.7"></path><path d="M139,217.36a.51.51,0,0,0-.27-.45" fill="none" stroke="#fff" stroke-linecap="round" stroke-linejoin="round" stroke-width="0.7"></path><path d="M129.93,223.71c.06,0,0,0,0,0" fill="none" stroke="#fff" stroke-linecap="round" stroke-linejoin="round" stroke-width="0.7"></path><path d="M132.1,220.78s0,0,.07.07" fill="none" stroke="#fff" stroke-linecap="round" stroke-linejoin="round" stroke-width="0.7"></path><path d="M130.24,224.2v12.23a.5.5,0,0,1-.76.44" fill="none" stroke="#fff" stroke-linecap="round" stroke-linejoin="round" stroke-width="0.7"></path><path d="M134.29,219.39s.05,0,.05.07" fill="none" stroke="#fff" stroke-linecap="round" stroke-linejoin="round" stroke-width="0.7"></path><polyline points="136.49 218.14 136.49 218.16 136.51 218.18 136.53 218.18" fill="none" stroke="#fff" stroke-linecap="round" stroke-linejoin="round" stroke-width="0.7"></polyline><path d="M132.44,221.29V236a.52.52,0,0,1-.79.44c-.06,0,0,0-.09,0" fill="none" stroke="#fff" stroke-linecap="round" stroke-linejoin="round" stroke-width="0.7"></path><path d="M138.66,216.88c.05,0,0,.05.07.05" fill="none" stroke="#fff" stroke-linecap="round" stroke-linejoin="round" stroke-width="0.7"></path><path d="M134.61,219.91v14.82a.51.51,0,0,1-.77.44h-.08" fill="none" stroke="#fff" stroke-linecap="round" stroke-linejoin="round" stroke-width="0.7"></path><path d="M136.8,218.65v14.82a.53.53,0,0,1-.79.45" fill="none" stroke="#fff" stroke-linecap="round" stroke-linejoin="round" stroke-width="0.7"></path><path d="M139,217.38V232.2a.5.5,0,0,1-.76.44" fill="none" stroke="#fff" stroke-linecap="round" stroke-linejoin="round" stroke-width="0.7"></path><path d="M185.76,203a7.82,7.82,0,0,0,.2-1.79v-9.94c0-2.92-1.43-5-2.82-5.71L180.48,184a4.18,4.18,0,0,1-2-3" fill="none" stroke="#fff" stroke-linecap="round" stroke-linejoin="round" stroke-width="0.7"></path><line x1="93.13" y1="236.81" x2="93.13" y2="236.81" fill="none" stroke="#fff" stroke-linecap="round" stroke-linejoin="round" stroke-width="0.7"></line><line x1="93.46" y1="236.99" x2="93.46" y2="236.99" fill="none" stroke="#fff" stroke-linecap="round" stroke-linejoin="round" stroke-width="0.7"></line><line x1="99.51" y1="240.48" x2="99.51" y2="240.48" fill="none" stroke="#fff" stroke-linecap="round" stroke-linejoin="round" stroke-width="0.7"></line><line x1="103.06" y1="242.29" x2="103.06" y2="242.29" fill="none" stroke="#fff" stroke-linecap="round" stroke-linejoin="round" stroke-width="0.7"></line><path d="M98.88,185.12l-.09-.05" fill="none" stroke="#fff" stroke-linecap="round" stroke-linejoin="round" stroke-width="0.7"></path><line x1="112.76" y1="193.13" x2="112.76" y2="193.13" fill="none" stroke="#fff" stroke-linecap="round" stroke-linejoin="round" stroke-width="0.7"></line><path d="M85.18,231.14a4.37,4.37,0,0,1-2.73-.82s-.85-.7-.85-.72v0a6.82,6.82,0,0,1-2.49-5.42V207.57a22.19,22.19,0,0,1,1.19-6.92,124.43,124.43,0,0,1,10.77-23.57c1-.51-2-3.13,24,12.27,15.41,9.15,11.06,6.81,14.37,9l2.89,2.28a3.26,3.26,0,0,0,.78.54c3.72,2.48,8.3.26,11.11-1l7.45-4.33" fill="none" stroke="#fff" stroke-linecap="round" stroke-linejoin="round" stroke-width="0.7"></path><path d="M183,209.09a6.15,6.15,0,0,0,2.72-4.9l-.06-10.88a3.74,3.74,0,0,0-5.61-3.21l-52.38,30.24a6.92,6.92,0,0,0-3.46,6v11.15a3.31,3.31,0,0,0,5,2.86l3.55-2.05Z" fill="none" stroke="#fff" stroke-linecap="round" stroke-linejoin="round" stroke-width="0.7"></path><path d="M85.94,219.57l1.39.94a122.15,122.15,0,0,0,14.08,8.15l3.51,1.7a4.94,4.94,0,0,1,2.64,4.07v8.36a2.92,2.92,0,0,0,1.46,2.88l1.14.43a6.82,6.82,0,0,0,5.93-.56l7.79-4.5" fill="none" stroke="#fff" stroke-linecap="round" stroke-linejoin="round" stroke-width="0.7"></path><path d="M182.34,185.05,126.2,217.46a9.18,9.18,0,0,0-4.59,7.95V237.7a3.57,3.57,0,0,0,5.36,3.09h0" fill="none" stroke="#fff" stroke-linecap="round" stroke-linejoin="round" stroke-width="0.7"></path><path d="M164.48,189.17l-10.9,6.27a1.66,1.66,0,0,1-2.49-1.43v-3.23a3.77,3.77,0,0,1,2-3.31l25.16-13.9a1.35,1.35,0,0,1,2,1.18V177" fill="none" stroke="#fff" stroke-linecap="round" stroke-linejoin="round" stroke-width="0.7"></path><path d="M145.26,213.37c38.15-22,37.08-21.82,38.85-20.93.67.22,1,1.42,1,1.54,0,11,.7,11.78-1.43,13.9-.4.41,1.85-.95-38.42,22.3Z" fill="none" stroke="#fff" stroke-linecap="round" stroke-linejoin="round" stroke-width="0.7"></path><path d="M183.57,192.24l.4.22c1.47,1,1.08,2.19,1.08,12.29,0,1.91-1.68,3.13-2,3.45L145.6,229.82c-.1.05-.21.08-.29,0" fill="none" stroke="#fff" stroke-linecap="round" stroke-linejoin="round" stroke-width="0.7"></path><path d="M110.39,111.73c0,4.46-2,7.48.49,8.71l9,5.19a2.86,2.86,0,0,0,3.2-.31l7.07-4.92s2.48-2,2.48-6.89-1.61-6.12-1.61-6.12" fill="none" stroke="#fff" stroke-linecap="round" stroke-linejoin="round" stroke-width="0.7"></path><path d="M123.88,124.76a1.33,1.33,0,0,0,.21.34,5.55,5.55,0,0,0,2,1.72l5.26,3c4.23,2.83,11,1.23,12.67-2.84a20.22,20.22,0,0,0,1.43-3.09,14.14,14.14,0,0,1,5.58-7.14l2.86-1.66a3.74,3.74,0,0,1,2.22-.56,1.9,1.9,0,0,1,.74.23,5.3,5.3,0,0,1,1.58,2.53c.48,1.19,1.94,5.66,2.38,7a8,8,0,0,1-.2,5.4c-.81,1.82-5.8,10.8-6.2,14.65s-.65,9.21-.65,10.48a6.5,6.5,0,0,1-5.39,5.52" fill="none" stroke="#fff" stroke-linecap="round" stroke-linejoin="round" stroke-width="0.7"></path><path d="M145.26,213.37s-2.12-.16-6.63,2.44l-9.3,5.88a5.89,5.89,0,0,0-2.94,5.1v9.1c0,3,3.13,2.71,4.37,2l9.29-5.37a14.37,14.37,0,0,1,5.26-2.47" fill="none" stroke="#fff" stroke-linecap="round" stroke-linejoin="round" stroke-width="0.7"></path><path d="M178.57,172.64a1,1,0,0,0-1.06.1c-.63.36-25.53,14.06-25.53,14.06a4.26,4.26,0,0,0-2.1,3.66v.68" fill="none" stroke="#fff" stroke-linecap="round" stroke-linejoin="round" stroke-width="0.7"></path><path d="M121.05,112.23a12.17,12.17,0,0,1,2.76,7.47,14.73,14.73,0,0,1-.45,3.36c-.35,1.38-.17,2.54-1.71,2.89" fill="none" stroke="#fff" stroke-linecap="round" stroke-linejoin="round" stroke-width="0.7"></path><path d="M206.3,36.79a24.34,24.34,0,0,0-2.2-11.58,1.13,1.13,0,0,1,0-.52c.4-1.2-1-3.23-1.74-4.1a32.88,32.88,0,0,0-2.26-2.53,22.37,22.37,0,0,0-4.37-3.35" fill="none" stroke="#fff" stroke-linecap="round" stroke-linejoin="round" stroke-width="0.7"></path><path d="M81.6,229.6v-9.94A1.55,1.55,0,0,1,84,218.34l2,1.23" fill="none" stroke="#fff" stroke-linecap="round" stroke-linejoin="round" stroke-width="0.7"></path><path d="M102,213a114,114,0,0,1-13.75-8.38,3.66,3.66,0,0,1-1.34-4.3,26.88,26.88,0,0,1,3.95-7,2.66,2.66,0,0,1,3.41-.62c3.57,2.08,11.23,6.54,12.67,7.3,1.89,1,1.43,3.37,1.43,3.37-.11,1.06-.39,2.82-3,8.46A2.52,2.52,0,0,1,102,213Z" fill="none" stroke="#fff" stroke-linecap="round" stroke-linejoin="round" stroke-width="0.7"></path><path d="M162.91,84.67c.21-.35.35-.55.37-.58,4.63-6.7,11.17-9.7,14.15-11.42,4.38-2.91,5-5.25,5.8-8" fill="none" stroke="#fff" stroke-linecap="round" stroke-linejoin="round" stroke-width="0.7"></path><path d="M157.51,153.17c.09-.06.18-.09.22-.18a.85.85,0,0,0,.25-.58c.63-8.15.55-8.91,1.39-11.44,1.06-2.84,1.69-3.52,3.38-7.32a20.38,20.38,0,0,0,1.25-5.06c1.11-6.09-2-12.54-3-16.34a32.65,32.65,0,0,1-2-8.23" fill="none" stroke="#fff" stroke-linecap="round" stroke-linejoin="round" stroke-width="0.7"></path><polyline points="132.94 90.97 133 93.8 132.06 93.83 132.03 92.43" fill="none" stroke="#fff" stroke-linecap="round" stroke-linejoin="round" stroke-width="0.7"></polyline><path d="M128.94,122.77c.75,0,5.44-2.62,5.44-8.51s-2.53-6.89-2.53-6.89a2.85,2.85,0,0,0-2.77.38l-6.61,3.8a13.45,13.45,0,0,1-12.33,0l-5.26-3-.3-.19-1.52-1" fill="none" stroke="#fff" stroke-linecap="round" stroke-linejoin="round" stroke-width="0.7"></path><path d="M77.74,70.17A10.94,10.94,0,0,1,86,64.92a2.66,2.66,0,0,0,1.27-.5l9.35-7a4.77,4.77,0,0,1,4.2-.74l0,0a1.13,1.13,0,0,1,.32,2l-9.79,6.78a.67.67,0,0,0,.13,1.17,19.47,19.47,0,0,1,3.8,2.2,1.34,1.34,0,0,0,1.57,0l9.34-6.64a2.94,2.94,0,0,1,3.69.22l.05,0a3,3,0,0,1-.28,4.58l-8.21,5.78a1.27,1.27,0,0,0-.27,1.82,39.77,39.77,0,0,1,2.73,4,1.27,1.27,0,0,0,1.73.45l9.31-5.33a3.23,3.23,0,0,1,4.54,1.45l0,.09a3.23,3.23,0,0,1-1.5,4.23l-9.77,4.9a1.28,1.28,0,0,0-.63,1.56A33.43,33.43,0,0,1,109,90.88a1.28,1.28,0,0,0,1.8.92l9-4.26a2.27,2.27,0,0,1,3.23,2,3.24,3.24,0,0,1-1.9,3l-10.84,4.93A2.28,2.28,0,0,0,109,99.2a11.19,11.19,0,0,1-1.18,3.73.59.59,0,0,0,.79.81l10.18-5.1" fill="none" stroke="#fff" stroke-linecap="round" stroke-linejoin="round" stroke-width="0.7"></path><path d="M82.23,65.45l.84-.5a12.79,12.79,0,0,1,1.57-.55A2.73,2.73,0,0,0,85.5,64l9.56-7.13A6.53,6.53,0,0,1,100,55.62l.24,0a1.79,1.79,0,0,1,.75,3.21l-8.75,6.29a.5.5,0,0,0,.09.86,19.29,19.29,0,0,1,3.17,1.78.86.86,0,0,0,1,0l9.45-6.66a4,4,0,0,1,5,.27l.06.05a4,4,0,0,1-.37,6.26l-8.18,5.9a.6.6,0,0,0-.12.85A40.43,40.43,0,0,1,104.66,78a.61.61,0,0,0,.82.21l9.24-5.38a4.18,4.18,0,0,1,5.9,1.85l0,.08a4.19,4.19,0,0,1-1.91,5.5l-9.94,5a.67.67,0,0,0-.32.8,34,34,0,0,1,1.18,4.29.66.66,0,0,0,.93.45l9-4.34a3.09,3.09,0,0,1,4.44,2.8v.08a4.85,4.85,0,0,1-2.83,4.28l-10.83,5a1,1,0,0,0-.54.68,11.33,11.33,0,0,1-1.08,3.33.39.39,0,0,0,.51.55l9.84-5a1.06,1.06,0,0,1,1.49,1.29" fill="none" stroke="#fff" stroke-linecap="round" stroke-linejoin="round" stroke-width="0.7"></path><path d="M80.7,68.48a7.42,7.42,0,0,1,3.46-1.12C91.45,66.71,100.77,75,105,85.82c3.57,9.21,2.32,17.32-2.6,20" fill="none" stroke="#fff" stroke-linecap="round" stroke-linejoin="round" stroke-width="0.7"></path><path d="M77.34,70.4A8,8,0,0,1,83.87,66c7.76-.69,17.67,8.1,22.14,19.64s1.82,21.44-5.93,22.13a9,9,0,0,1-1.38,0" fill="none" stroke="#fff" stroke-linecap="round" stroke-linejoin="round" stroke-width="0.7"></path><path d="M61.9,81.63a7,7,0,0,1,2.79-.84c6.58-.59,15,6.88,18.8,16.68,3.17,8.16,2.14,15.36-2.1,17.88" fill="none" stroke="#fff" stroke-linecap="round" stroke-linejoin="round" stroke-width="0.7"></path><path d="M54.48,97.59a3.37,3.37,0,0,1,1.25-.36c3.14-.28,6.92,3.59,8.62,8,1.39,3.57,1.39,7.17-.53,8.44" fill="none" stroke="#fff" stroke-linecap="round" stroke-linejoin="round" stroke-width="0.7"></path><path d="M68.76,77.66a7.7,7.7,0,0,1,6.66-5.29C82.68,71.72,92,80,96.15,90.75s1.7,20.07-5.55,20.72a9.73,9.73,0,0,1-2.34-.08" fill="none" stroke="#fff" stroke-linecap="round" stroke-linejoin="round" stroke-width="0.7"></path><path d="M70.44,76.7a6.94,6.94,0,0,1,5.3-3.12c6.83-.61,15.57,7.14,19.52,17.31s1.6,18.9-5.23,19.51H90" fill="none" stroke="#fff" stroke-linecap="round" stroke-linejoin="round" stroke-width="0.7"></path><path d="M58.46,108.57c1.63,4.2.66,7.8-2.15,8.05-2.29.2-5.1-1.87-6.94-4.9a14.48,14.48,0,0,1-1.11-2.23c-1.62-4.19-.66-7.8,2.16-8S56.83,104.38,58.46,108.57Z" fill="none" stroke="#fff" stroke-linecap="round" stroke-linejoin="round" stroke-width="0.7"></path><path d="M51.25,100.62c-.32-4.21,1.35-7.3,4.58-7.59,4.43-.4,10.08,4.62,12.64,11.2s1,12.24-3.39,12.64a8.67,8.67,0,0,1-5.49-1.79" fill="none" stroke="#fff" stroke-linecap="round" stroke-linejoin="round" stroke-width="0.7"></path><path d="M141.74,100.14l-5.27,3.08c-1.47.85-2.66.16-2.66-1.54h0a5.9,5.9,0,0,1,2.66-4.62L141.74,94c1.48-.85,2.67-.16,2.67,1.54h0A5.88,5.88,0,0,1,141.74,100.14Z" fill="none" stroke="#fff" stroke-linecap="round" stroke-linejoin="round" stroke-width="0.7"></path><path d="M156.37,84.19,170,76.34a4.25,4.25,0,0,0,2.12-3.68V71.23" fill="none" stroke="#fff" stroke-linecap="round" stroke-linejoin="round" stroke-width="0.7"></path><path d="M156.25,80.38a4.68,4.68,0,0,1,.75,2.37c0,1.44-1,2-2.25,1.3a4.74,4.74,0,0,1-1.68-1.83" fill="none" stroke="#fff" stroke-linecap="round" stroke-linejoin="round" stroke-width="0.7"></path><path d="M188.14,57.16a92.71,92.71,0,0,0,0-13.75,3.36,3.36,0,0,1,1.54-2.82h0c.79-.46,1.46-.14,1.53.73a93.93,93.93,0,0,1,0,14.34,3.47,3.47,0,0,1-1.54,2.53h0C188.77,58.71,188.06,58.23,188.14,57.16Z" fill="none" stroke="#fff" stroke-linecap="round" stroke-linejoin="round" stroke-width="0.7"></path><path d="M183.19,60a92.79,92.79,0,0,0,0-13.75,3.38,3.38,0,0,1,1.53-2.82h0c.8-.46,1.46-.14,1.53.73a92.79,92.79,0,0,1,0,14.35A3.44,3.44,0,0,1,184.73,61h0C183.82,61.56,183.12,61.09,183.19,60Z" fill="none" stroke="#fff" stroke-linecap="round" stroke-linejoin="round" stroke-width="0.7"></path><path d="M178.24,62.87a92.79,92.79,0,0,0,0-13.75,3.36,3.36,0,0,1,1.53-2.82h0c.8-.46,1.47-.14,1.54.73a93.93,93.93,0,0,1,0,14.34,3.47,3.47,0,0,1-1.54,2.53h0C178.88,64.42,178.17,63.94,178.24,62.87Z" fill="none" stroke="#fff" stroke-linecap="round" stroke-linejoin="round" stroke-width="0.7"></path><path d="M173.3,65.72a94,94,0,0,0,0-13.74,3.33,3.33,0,0,1,1.53-2.82h0c.8-.46,1.46-.15,1.53.72a92.79,92.79,0,0,1,0,14.35,3.43,3.43,0,0,1-1.54,2.52h0C173.93,67.27,173.23,66.8,173.3,65.72Z" fill="none" stroke="#fff" stroke-linecap="round" stroke-linejoin="round" stroke-width="0.7"></path><path d="M197.05,17.1c2.18,2.09,8,5.57,9.13,15.52" fill="none" stroke="#fff" stroke-linecap="round" stroke-linejoin="round" stroke-width="0.7"></path><path d="M136.08,62.15c22.11-12.64,40.42-23.43,56.38-32.55,3.76-2.17,7.92-1.76,10.14.06" fill="none" stroke="#fff" stroke-linecap="round" stroke-linejoin="round" stroke-width="0.7"></path><path d="M202.6,29.66c-2.19-1.23-5.2-1-8.52.88l-57.23,33" fill="none" stroke="#fff" stroke-linecap="round" stroke-linejoin="round" stroke-width="0.7"></path><path d="M206.34,34.3a18.06,18.06,0,0,1-6,5.61.84.84,0,0,1-1.3-.68,2.26,2.26,0,0,1,1-2c3.82-2.21,5-4.48,5-4.48s-.85-1.34-1.21-1.85a11.36,11.36,0,0,1-3.65,3.79A.83.83,0,0,1,199,34a2.41,2.41,0,0,1,1.05-2,12.64,12.64,0,0,0,2.54-2.32" fill="none" stroke="#fff" stroke-linecap="round" stroke-linejoin="round" stroke-width="0.7"></path><path d="M205.32,43.09l.53-3.15a18.73,18.73,0,0,1-5.31,5.14.9.9,0,0,1-1.39-.71,2.1,2.1,0,0,1,1-1.86,24.6,24.6,0,0,0,6.18-5.72" fill="none" stroke="#fff" stroke-linecap="round" stroke-linejoin="round" stroke-width="0.7"></path><path d="M203.5,47.92a14.26,14.26,0,0,1-2.94,2.43.86.86,0,0,1-1.33-.69,2.2,2.2,0,0,1,1-1.95,16.9,16.9,0,0,0,5-4.59" fill="none" stroke="#fff" stroke-linecap="round" stroke-linejoin="round" stroke-width="0.7"></path><path d="M133,93.8l61.08-35.26a25.3,25.3,0,0,0,9.15-10.1l.27-.52" fill="none" stroke="#fff" stroke-linecap="round" stroke-linejoin="round" stroke-width="0.7"></path><line x1="204.47" y1="38.93" x2="205.85" y2="39.94" fill="none" stroke="#fff" stroke-linecap="round" stroke-linejoin="round" stroke-width="0.7"></line><line x1="206.34" y1="34.3" x2="204.78" y2="33.31" fill="none" stroke="#fff" stroke-linecap="round" stroke-linejoin="round" stroke-width="0.7"></line><line x1="203.5" y1="47.92" x2="201.87" y2="46.62" fill="none" stroke="#fff" stroke-linecap="round" stroke-linejoin="round" stroke-width="0.7"></line><line x1="203.95" y1="30.89" x2="202.38" y2="30.03" fill="none" stroke="#fff" stroke-linecap="round" stroke-linejoin="round" stroke-width="0.7"></line><path d="M158.81,102.65a.74.74,0,0,1-.3.6c-1.44,1-2.87,2.07-4.31,3a.79.79,0,0,1-1.25-.68q.33-7.52.67-15a3.85,3.85,0,0,1,1.73-3.07c1.81-1.21,3.62-2.46,5.42-3.77a.81.81,0,0,1,1.3.63v1.53a1.22,1.22,0,0,1-.14.59C158.48,93.47,158.71,98.07,158.81,102.65Z" fill="none" stroke="#fff" stroke-linecap="round" stroke-linejoin="round" stroke-width="0.7"></path><path d="M162.06,84.67h.85v-.46a1.61,1.61,0,0,0-2.55-1.33l-5.69,4a4.29,4.29,0,0,0-1.82,3.33l-.66,15.93a1.35,1.35,0,0,0,2.2,1.12l4.53-3.22-1.58.07" fill="none" stroke="#fff" stroke-linecap="round" stroke-linejoin="round" stroke-width="0.7"></path></g></g><rect width="254.43" height="254.43" fill="none"></rect></g></svg> 