<?xml version="1.0" encoding="UTF-8"?> <svg xmlns="http://www.w3.org/2000/svg" width="81.898" height="81.897" viewBox="0 0 81.898 81.897"><path id="Path_67" data-name="Path 67" d="M1.365,82.4H66.884a1.365,1.365,0,0,0,1.365-1.365V68.746H77.8a1.365,1.365,0,0,0,1.365-1.365V53.731A1.365,1.365,0,0,0,77.8,52.367H68.249V40.082a1.365,1.365,0,0,0-1.365-1.365h-2.5a3.157,3.157,0,0,0-.558-2.556l-6.168-8.222L60.5,25.8a4.718,4.718,0,0,0,1.883-4.044L62.247,19.3a2,2,0,0,1,.8-1.708l2.847-2.136,1.2,1.6a1.364,1.364,0,0,0,.9.532,1.325,1.325,0,0,0,.193.013A1.359,1.359,0,0,0,69,17.326L80.261,8.878a4.1,4.1,0,0,0,.819-5.732l-.759-1.012a4.1,4.1,0,0,0-5.733-.817L63.327,9.765a1.366,1.366,0,0,0-.273,1.911l1.2,1.6L61.4,15.41a4.716,4.716,0,0,0-1.883,4.043l.136,2.458a1.992,1.992,0,0,1-.795,1.708l-2.847,2.136-6.168-8.222a3.165,3.165,0,0,0-2.778-1.277,3.028,3.028,0,0,0-2.449,1.589L33.405,38.717H1.365A1.365,1.365,0,0,0,0,40.082v13.65A1.365,1.365,0,0,0,1.365,55.1H10.92v10.92H1.365A1.365,1.365,0,0,0,0,67.381v13.65A1.365,1.365,0,0,0,1.365,82.4ZM76.226,3.5a1.365,1.365,0,0,1,1.911.272L78.9,4.785a1.365,1.365,0,0,1-.273,1.91l-10.17,7.63-2.4-3.2ZM24.57,68.746H43.679v10.92H24.57ZM35.489,55.1H54.6v10.92H35.489ZM65.519,79.666H46.409V68.746h19.11Zm10.92-13.65H57.329V55.1h19.11Zm-10.92-13.65H46.409V44.418L60.38,41.446h5.139ZM47.026,19.14a.285.285,0,0,1,.249-.16H47.3a.45.45,0,0,1,.362.193l6.167,8.222L48.2,31.618A1.365,1.365,0,0,0,49.838,33.8l5.631-4.225L61.637,37.8a.441.441,0,0,1,.075.427.286.286,0,0,1-.223.194l-27.08,5.758a.444.444,0,0,1-.434-.186.435.435,0,0,1-.056-.467ZM31.792,45.632a3.125,3.125,0,0,0,3.185,1.217L43.679,45v7.368H24.57V41.446h7.367l-.423.787a3.138,3.138,0,0,0,.278,3.4ZM2.73,46.907H5.46a1.365,1.365,0,1,0,0-2.73H2.73V41.446H21.84v10.92H2.73Zm10.92,8.19h19.11v10.92H13.649ZM2.73,68.746H21.84v10.92H2.73Zm0,0" transform="translate(0 -0.499)" fill="#fff"></path></svg> 