<?xml version="1.0" encoding="utf-8"?>
<!-- Generator: Adobe Illustrator 25.0.0, SVG Export Plug-In . SVG Version: 6.00 Build 0)  -->
<svg version="1.1" id="Layer_1" xmlns="http://www.w3.org/2000/svg" xmlns:xlink="http://www.w3.org/1999/xlink" x="0px" y="0px"
	 viewBox="0 0 254.4 254.4" style="enable-background:new 0 0 254.4 254.4;" xml:space="preserve">
<style type="text/css">
	.st0{fill:none;stroke:#FFFFFF;stroke-width:2;stroke-miterlimit:10;}
	.st1{fill:#06436A;}
	.st2{fill:none;}
</style>
<g id="Layer_2_1_">
	<g id="Layer_1-2">
		<line class="st0" x1="143.6" y1="58.8" x2="143.5" y2="58.8"/>
		<line class="st0" x1="223.7" y1="69" x2="223.6" y2="68.9"/>
		<path class="st1" d="M162.2,68.8c0,0-13.2-17.8-33.7-6.8c-8.3,6.4-114.4,87.7-114.4,87.7c-1.9,2-3.5,4.2-4.7,6.8
			c0,0.3-0.1,0.5-0.1,0.7c-0.7,3.8-2,7.3-2.2,11.1c-0.2,3.6,0.6,7.1,2.3,10.2c2.4,4.7,6.1,8.8,10.5,11.7c6.7,3.4,16.8,5.4,27.9-2.2
			l111.4-85.6C159.1,102.4,175.2,87.1,162.2,68.8z"/>
		<circle class="st0" cx="32.3" cy="168.1" r="25.3"/>
		<path class="st0" d="M14.9,149.8l111.2-85.9c11.3-8.3,27-5.9,35.3,5.3c8,10.8,6.1,26.1-4.4,34.6L47.8,188"/>
		<path class="st0" d="M165.9,77.1c-11.5-10-31.1-11.6-31.1-11.6l8.7-6.6c-6.3-0.6-12.6,1.3-17.6,5.1L19,146.8
			c5.1-3.3,11.3-4.7,17.3-3.9l7.6-6c0,0,29.5,5.9,38.9,15.8l-25.5,18.8l0,0c-0.8,6.7-4.3,12.7-9.6,16.8l109.2-84.4 M89.6,147.5
			c-15.7-13.5-40.1-16-40.1-16L64,120.7c33.2,4.5,39.6,16.8,39.6,16.8L89.6,147.5z M110.1,131.2c0,0-12.6-13.2-39.7-15.6l14.9-10.9
			c0,0,25.7,2.4,39.5,15.9L110.1,131.2z M130.8,114.8c0,0-12.6-13.1-39.7-15.6L106,88.3c0,0,25.7,2.4,39.5,15.9L130.8,114.8z
			 M151.2,98.5c0,0-12.6-13.1-39.7-15.6L126.4,72c0,0,25.7,2.4,39.5,15.9L151.2,98.5z"/>
		<path class="st0" d="M165.9,92.7l-0.5-0.4"/>
		<line class="st0" x1="57.3" y1="171.5" x2="57.3" y2="171.5"/>
		<g>
			<path class="st1" d="M185.3,14.9c0,0-13.2-17.8-33.7-6.8c-8.3,6.4-114.4,87.7-114.4,87.7c-1.9,2-3.5,4.2-4.7,6.8
				c0,0.3-0.1,0.5-0.1,0.7c-0.7,3.8-2.1,7.3-2.2,11.1c-0.2,3.6,0.6,7.1,2.2,10.2c2.4,4.7,6.1,8.8,10.5,11.7
				c6.7,3.4,16.8,5.4,27.9-2.2l111.5-85.6C182.2,48.6,198.3,33.2,185.3,14.9z"/>
			<circle class="st0" cx="55.5" cy="114.2" r="25.3"/>
			<path class="st0" d="M38,95.9L149.2,10c10.9-8.7,26.8-6.9,35.5,4.1c8.7,10.9,6.9,26.8-4.1,35.5l0,0c-0.2,0.2-0.4,0.3-0.5,0.4
				L70.9,134.3"/>
			<path class="st0" d="M189,23.2c-11.5-10-31.1-11.6-31.1-11.6l8.7-6.6c-6.3-0.6-12.6,1.3-17.6,5.1L42.1,93
				c5.1-3.3,11.3-4.7,17.3-3.9l7.7-6c0,0,29.5,5.9,38.9,15.8l-25.5,18.8l0,0c-0.8,6.7-4.4,12.7-9.7,16.8L180,50.1 M112.7,93.7
				c-15.7-13.5-40.1-16-40.1-16l14.5-10.8c33.2,4.5,39.6,16.8,39.6,16.8L112.7,93.7z M133.2,77.3c0,0-12.6-13.2-39.7-15.6l14.9-10.9
				c0,0,25.7,2.4,39.5,15.9L133.2,77.3z M153.9,60.9c0,0-12.5-13.1-39.7-15.6L129,34.4c0,0,25.7,2.4,39.5,15.9L153.9,60.9z
				 M174.4,44.7c0,0-12.6-13.1-39.7-15.6l14.8-10.9c0,0,25.7,2.4,39.5,15.9L174.4,44.7z"/>
			<path class="st0" d="M189,38.8c-0.2-0.1-0.3-0.2-0.5-0.4"/>
		</g>
		<g>
			<path class="st1" d="M187.5,104.1c0,0-13.2-17.8-33.7-6.8C145.5,103.7,39.4,185,39.4,185c-1.9,2-3.5,4.2-4.7,6.8
				c0,0.3-0.1,0.5-0.1,0.7c-0.7,3.8-2.1,7.3-2.2,11.1c-0.2,3.6,0.6,7.1,2.2,10.2c2.4,4.7,6.1,8.8,10.5,11.7
				c6.7,3.4,16.8,5.4,27.9-2.2l111.5-85.6C184.4,137.8,200.5,122.4,187.5,104.1z"/>
			<circle class="st0" cx="57.7" cy="203.4" r="25.3"/>
			<path class="st0" d="M40.2,185.1l111.2-85.9c10.9-8.7,26.8-6.9,35.5,4.1c8.7,10.9,6.9,26.8-4.1,35.5l0,0
				c-0.2,0.2-0.4,0.3-0.5,0.4L73.1,223.5"/>
			<path class="st0" d="M191.2,112.4c-11.5-10-31.1-11.6-31.1-11.6l8.7-6.6c-6.3-0.6-12.6,1.3-17.6,5.1L44.3,182.2
				c5.1-3.3,11.3-4.7,17.3-3.9l7.7-6c0,0,29.5,5.9,38.9,15.8l-25.5,18.8l0,0c-0.8,6.7-4.4,12.7-9.7,16.8l109.2-84.4 M114.9,182.9
				c-15.7-13.5-40.1-16-40.1-16l14.5-10.8c33.2,4.5,39.6,16.8,39.6,16.8L114.9,182.9z M135.4,166.5c0,0-12.6-13.2-39.7-15.6
				l14.9-10.9c0,0,25.7,2.4,39.5,15.9L135.4,166.5z M156.1,150.1c0,0-12.5-13.1-39.7-15.6l14.8-10.9c0,0,25.7,2.4,39.5,15.9
				L156.1,150.1z M176.6,133.9c0,0-12.6-13.1-39.7-15.6l14.8-10.9c0,0,25.7,2.4,39.5,15.9L176.6,133.9z"/>
			<path class="st0" d="M191.2,128c-0.2-0.1-0.3-0.2-0.5-0.4"/>
		</g>
		<line class="st0" x1="35.4" y1="143.2" x2="35.3" y2="143.3"/>
		<g>
			<path class="st1" d="M220.5,46c0,0-13.2-17.8-33.7-6.8c-8.3,6.4-114.4,87.7-114.4,87.7c-1.9,2-3.5,4.2-4.7,6.8
				c0,0.3-0.1,0.5-0.1,0.7c-0.7,3.8-2.1,7.3-2.2,11.1c-0.2,3.6,0.6,7.1,2.2,10.2c2.4,4.7,6.1,8.8,10.5,11.7
				c6.7,3.4,16.8,5.4,27.9-2.2l111.5-85.6C217.4,79.7,233.5,64.3,220.5,46z"/>
			<circle class="st0" cx="90.7" cy="145.3" r="25.3"/>
			<path class="st0" d="M73.2,127l111.2-85.9c10.9-8.7,26.8-6.9,35.5,4.1c8.7,10.9,6.9,26.8-4.1,35.5l0,0c-0.2,0.2-0.4,0.3-0.5,0.4
				l-109.2,84.3"/>
			<path class="st0" d="M224.2,54.3c-11.5-10-31.1-11.6-31.1-11.6l8.7-6.6c-6.3-0.6-12.6,1.3-17.6,5.1L77.3,124.1
				c5.1-3.3,11.3-4.7,17.3-3.9l7.7-6c0,0,29.5,5.9,38.9,15.8l-25.5,18.8l0,0c-0.8,6.7-4.4,12.7-9.7,16.8l109.2-84.4 M147.9,124.8
				c-15.7-13.5-40.1-16-40.1-16L122.3,98c33.2,4.5,39.6,16.8,39.6,16.8L147.9,124.8z M168.4,108.4c0,0-12.6-13.2-39.7-15.6
				l14.9-10.9c0,0,25.7,2.4,39.5,15.9L168.4,108.4z M189.1,92c0,0-12.5-13.1-39.7-15.6l14.8-10.9c0,0,25.7,2.4,39.5,15.9L189.1,92z
				 M209.6,75.8c0,0-12.6-13.1-39.7-15.6l14.8-10.9c0,0,25.7,2.4,39.5,15.9L209.6,75.8z"/>
			<path class="st0" d="M224.2,69.9c-0.2-0.1-0.3-0.2-0.5-0.4"/>
		</g>
		<g>
			<path class="st1" d="M235.2,122.8c0,0-13.2-17.8-33.7-6.8c-8.3,6.4-114.4,87.7-114.4,87.7c-1.9,2-3.5,4.2-4.7,6.8
				c0,0.3-0.1,0.5-0.1,0.7c-0.7,3.8-2.1,7.3-2.2,11.1c-0.2,3.6,0.6,7.1,2.2,10.2c2.4,4.7,6.1,8.8,10.5,11.7
				c6.7,3.4,16.8,5.4,27.9-2.2l111.5-85.6C232.1,156.5,248.2,141.1,235.2,122.8z"/>
			<circle class="st0" cx="105.4" cy="222.1" r="25.3"/>
			<path class="st0" d="M87.9,203.8l111.2-85.9c10.9-8.7,26.8-6.9,35.5,4.1c8.7,10.9,6.9,26.8-4.1,35.5l0,0
				c-0.2,0.2-0.4,0.3-0.5,0.4l-109.2,84.3"/>
			<path class="st0" d="M238.9,131.1c-11.5-10-31.1-11.6-31.1-11.6l8.7-6.6c-6.3-0.6-12.6,1.3-17.6,5.1L92,200.9
				c5.1-3.3,11.3-4.7,17.3-3.9l7.7-6c0,0,29.5,5.9,38.9,15.8l-25.5,18.8l0,0c-0.8,6.7-4.4,12.7-9.7,16.8L229.9,158 M162.6,201.6
				c-15.7-13.5-40.1-16-40.1-16l14.5-10.8c33.2,4.5,39.6,16.8,39.6,16.8L162.6,201.6z M183.1,185.2c0,0-12.6-13.2-39.7-15.6
				l14.9-10.9c0,0,25.7,2.4,39.5,15.9L183.1,185.2z M203.8,168.8c0,0-12.5-13.1-39.7-15.6l14.8-10.9c0,0,25.7,2.4,39.5,15.9
				L203.8,168.8z M224.3,152.6c0,0-12.6-13.1-39.7-15.6l14.8-10.9c0,0,25.7,2.4,39.5,15.9L224.3,152.6z"/>
			<path class="st0" d="M238.9,146.7c-0.2-0.1-0.3-0.2-0.5-0.4"/>
		</g>
		<g>
			<path class="st1" d="M242.3,78.9c0,0-13.2-17.8-33.7-6.8c-8.3,6.4-114.4,87.7-114.4,87.7c-1.9,2-3.5,4.2-4.7,6.8
				c0,0.3-0.1,0.5-0.1,0.7c-0.7,3.8-2.1,7.3-2.2,11.1c-0.2,3.6,0.6,7.1,2.2,10.2c2.4,4.7,6.1,8.8,10.5,11.7
				c6.7,3.4,16.8,5.4,27.9-2.2l111.5-85.6C239.2,112.6,255.3,97.2,242.3,78.9z"/>
			<circle class="st0" cx="112.5" cy="178.2" r="25.3"/>
			<path class="st0" d="M95,159.9L206.2,74c10.9-8.7,26.8-6.9,35.5,4.1c8.7,10.9,6.9,26.8-4.1,35.5l0,0c-0.2,0.2-0.4,0.3-0.5,0.4
				l-109.2,84.3"/>
			<path class="st0" d="M246,87.2c-11.5-10-31.1-11.6-31.1-11.6l8.7-6.6c-6.3-0.6-12.6,1.3-17.6,5.1L99.1,157
				c5.1-3.3,11.3-4.7,17.3-3.9l7.7-6c0,0,29.5,5.9,38.9,15.8l-25.5,18.8l0,0c-0.8,6.7-4.4,12.7-9.7,16.8L237,114.1 M169.7,157.7
				c-15.7-13.5-40.1-16-40.1-16l14.5-10.8c33.2,4.5,39.6,16.8,39.6,16.8L169.7,157.7z M190.2,141.3c0,0-12.6-13.2-39.7-15.6
				l14.9-10.9c0,0,25.7,2.4,39.5,15.9L190.2,141.3z M210.9,124.9c0,0-12.5-13.1-39.7-15.6L186,98.4c0,0,25.7,2.4,39.5,15.9
				L210.9,124.9z M231.4,108.7c0,0-12.6-13.1-39.7-15.6l14.8-10.9c0,0,25.7,2.4,39.5,15.9L231.4,108.7z"/>
			<path class="st0" d="M246,102.8c-0.2-0.1-0.3-0.2-0.5-0.4"/>
		</g>
		<line class="st0" x1="137.4" y1="181.7" x2="137.4" y2="181.7"/>
		<line class="st0" x1="115.5" y1="153.3" x2="115.4" y2="153.4"/>
	</g>
</g>
<rect y="0.6" class="st2" width="254.4" height="254.4"/>
</svg>
