<?xml version="1.0" encoding="UTF-8"?> <svg xmlns="http://www.w3.org/2000/svg" width="254.43" height="254.43" viewBox="0 0 254.43 254.43"><title>Safety Items</title><g><g><path d="M245.23,132.36c0-7.9-3.62-17.07-10.79-24.67-1-1-.64-24.56-16.18-46.69a.26.26,0,0,0-.07-.11c-4.46-4-5.31-12.6-15.83-16.58-.15-.5-11.05-8.91-27-13.26-3.44-4.41-2.15-7.61-20.11-8.18-.1-.11-15.15-1.39-31.19,9.48-3-.89-61.6,18.77-70.14,88.62-9.72,7.35-45.76,37.89-44.66,50.65.14,5.19,10.53,17.38,12.9,19.9,18.72,20,49.68,30.54,75.49,37.37,18.74,5,18.74,5,53-14.37C190.38,192,245.23,172.11,245.23,132.36Z" fill="#08436a"></path><path d="M245.23,132.36c0-7.9-3.62-17.07-10.79-24.67-1-1-.64-24.56-16.18-46.69a.26.26,0,0,0-.07-.11c-4.46-4-5.31-12.6-15.83-16.58-.15-.5-11.05-8.91-27-13.26-3.44-4.41-2.15-7.61-20.11-8.18-.1-.11-15.15-1.39-31.19,9.48-3-.89-61.6,18.77-70.14,88.62-9.72,7.35-45.76,37.89-44.66,50.65.14,5.19,10.53,17.38,12.9,19.9,18.72,20,49.68,30.54,75.49,37.37,18.74,5,18.74,5,53-14.37C190.38,192,245.23,172.11,245.23,132.36Z" fill="#08436a"></path><path d="M245.23,132.36c0-7.9-3.62-17.07-10.79-24.67-1-1-.64-24.56-16.18-46.69a.26.26,0,0,0-.07-.11c-4.46-4-5.31-12.6-15.83-16.58-.15-.5-11.05-8.91-27-13.26-3.44-4.41-2.15-7.61-20.11-8.18-.1-.11-15.15-1.39-31.19,9.48-3-.89-61.6,18.77-70.14,88.62-9.72,7.35-45.76,37.89-44.66,50.65.14,5.19,10.53,17.38,12.9,19.9,18.72,20,49.68,30.54,75.49,37.37,18.74,5,18.74,5,53-14.37C190.38,192,245.23,172.11,245.23,132.36Z" fill="none" stroke="#fff" stroke-linecap="round" stroke-linejoin="round" stroke-width="2"></path><path d="M244.93,134.53h0" fill="none" stroke="#fff" stroke-linecap="round" stroke-width="0.7"></path><path d="M192.47,163.65h0" fill="none" stroke="#fff" stroke-linecap="round" stroke-width="0.7"></path><path d="M215.76,154.83h0" fill="none" stroke="#fff" stroke-linecap="round" stroke-width="0.7"></path><path d="M235,111.28h0" fill="none" stroke="#fff" stroke-linecap="round" stroke-width="0.7"></path><path d="M234.75,114.66h0" fill="none" stroke="#fff" stroke-linecap="round" stroke-width="0.7"></path><path d="M211.88,52.55c.64,1,1.93,3.59,2.39,4.3" fill="none" stroke="#fff" stroke-linecap="round" stroke-width="0.7"></path><path d="M9.53,171.59h0" fill="none" stroke="#fff" stroke-linecap="round" stroke-width="0.7"></path><path d="M49.58,127.05h0" fill="none" stroke="#fff" stroke-linecap="round" stroke-width="0.7"></path><path d="M47,147.36v0" fill="none" stroke="#fff" stroke-linecap="round" stroke-width="0.7"></path><path d="M53.09,132.49h0" fill="none" stroke="#fff" stroke-linecap="round" stroke-width="0.7"></path><path d="M168.26,29.76h0" fill="none" stroke="#fff" stroke-linecap="round" stroke-width="0.7"></path><path d="M194.87,165a.91.91,0,0,0,.72,0" fill="none" stroke="#fff" stroke-linecap="round" stroke-width="0.7"></path><path d="M244.93,134.7c0,31.48-41.46,50.35-66.18,63.73-66.33,36.48-57.71,36.24-84.44,29.28-19.3-5.22-31.28-8.91-49-19" fill="none" stroke="#fff" stroke-linecap="round" stroke-width="0.7"></path><path d="M213.38,154.79c-3.09-2.14-3-1.36-.6-2.83" fill="none" stroke="#fff" stroke-linecap="round" stroke-width="0.7"></path><path d="M195.59,165.06a116.85,116.85,0,0,0,17.79-10.27" fill="none" stroke="#fff" stroke-linecap="round" stroke-width="0.7"></path><line x1="192.47" y1="163.65" x2="194.87" y2="165.02" fill="none" stroke="#fff" stroke-linecap="round" stroke-width="0.7"></line><path d="M212.78,152c2.6,2,3,2.17,3,2.87" fill="none" stroke="#fff" stroke-linecap="round" stroke-width="0.7"></path><line x1="244.93" y1="132.97" x2="244.93" y2="134.53" fill="none" stroke="#fff" stroke-linecap="round" stroke-width="0.7"></line><path d="M235,111.28c4.84,3.68,5.87.64,5.87,17.68" fill="none" stroke="#fff" stroke-linecap="round" stroke-width="0.7"></path><path d="M215.76,154.83c.4,8.19.51,11.37.68,15" fill="none" stroke="#fff" stroke-linecap="round" stroke-width="0.7"></path><path d="M234.22,107.9a45.5,45.5,0,0,1,4.73,6" fill="none" stroke="#fff" stroke-linecap="round" stroke-width="0.7"></path><path d="M238.88,113.82h0" fill="none" stroke="#fff" stroke-linecap="round" stroke-width="0.7"></path><path d="M239.75,115.16c3.26,5.87,5.18,11,5.18,17.81" fill="none" stroke="#fff" stroke-linecap="round" stroke-width="0.7"></path><path d="M234.49,110.91a2.43,2.43,0,0,0,.5.37" fill="none" stroke="#fff" stroke-linecap="round" stroke-width="0.7"></path><path d="M214.27,56.85a8.46,8.46,0,0,0,.58,1" fill="none" stroke="#fff" stroke-linecap="round" stroke-width="0.7"></path><path d="M119.83,59.32c3.15,3.16,24-8.21,38.14-12.23,16.41-4.69,45.88-9.59,53.91,5.46" fill="none" stroke="#fff" stroke-linecap="round" stroke-linejoin="round" stroke-width="2"></path><path d="M194.18,39.12a70.3,70.3,0,0,1,7.89,5.27" fill="none" stroke="#fff" stroke-linecap="round" stroke-width="0.7"></path><path d="M206.77,48.33h0" fill="none" stroke="#fff" stroke-linecap="round" stroke-width="0.7"></path><path d="M45.31,208.68c-8-4.55-16.63-10.6-23-17.37-3.28-3.49-11-13.19-12.42-17.56a9.12,9.12,0,0,1-.39-3.66" fill="none" stroke="#fff" stroke-linecap="round" stroke-width="0.7"></path><path d="M244.93,132.36c0,31.48-41.46,50.35-66.18,63.73-66.33,36.48-57.71,36.24-84.44,29.28-19.3-5.21-31.28-8.91-49-19" fill="none" stroke="#fff" stroke-linecap="round" stroke-width="0.7"></path><path d="M45.31,206.34c-8-4.55-16.32-10.19-22.66-17-3.28-3.49-11-13.19-12.43-17.56a9.3,9.3,0,0,1-.39-3.66" fill="none" stroke="#fff" stroke-linecap="round" stroke-width="0.7"></path><path d="M49.64,126.92c0-1.09,3.67-2.88,4.16-3.12" fill="none" stroke="#fff" stroke-linecap="round" stroke-width="0.7"></path><path d="M155.2,23.17c3.24.1,6.15.39,9.18.78" fill="none" stroke="#fff" stroke-linecap="round" stroke-width="0.7"></path><path d="M9.53,170.09c0-11.45,34.8-41.52,44.58-48.91" fill="none" stroke="#fff" stroke-linecap="round" stroke-width="0.7"></path><path d="M164.38,24c8.1.74,9,5.16,10.75,7.35" fill="none" stroke="#fff" stroke-linecap="round" stroke-width="0.7"></path><path d="M96.39,64.56c0-.62,21.6-42.77,58.81-41.39" fill="none" stroke="#fff" stroke-linecap="round" stroke-linejoin="round" stroke-width="2"></path><path d="M168.26,29.76a81.53,81.53,0,0,1,25.92,9.36" fill="none" stroke="#fff" stroke-linecap="round" stroke-width="0.7"></path><path d="M53.09,132.49C57.39,76.6,86,44.32,123.93,32.64" fill="none" stroke="#fff" stroke-linecap="round" stroke-width="0.7"></path><path d="M216.44,169.83c0-.12.07.44-.68.85-14.79,8.14-19.13,12.91-22.09,11-2.52-2-3-2.35-3-4.09,0-15.31-.62-12.91,1.85-13.94v0" fill="none" stroke="#fff" stroke-linecap="round" stroke-width="0.7"></path><path d="M190.64,164.41c1.89,1.1,4,2.87,6.65,1.47,8.16-4.33,13.75-7.18,18.4-11.42" fill="none" stroke="#fff" stroke-linecap="round" stroke-width="0.7"></path><path d="M240.86,129c0,5.42-1.29,13.6-2.65,14.93l-5.52-.51c-1.47-21.68,1.17-10.16,1.9-22.7,1.14-19.67-5.44-47.08-21.28-65.57" fill="none" stroke="#fff" stroke-linecap="round" stroke-width="0.7"></path><path d="M239.31,114.14c.56,4,1.17,15-1.38,18l.28,11.76" fill="none" stroke="#fff" stroke-linecap="round" stroke-width="0.7"></path><line x1="237.93" y1="132.13" x2="232" y2="131.51" fill="none" stroke="#fff" stroke-linecap="round" stroke-width="0.7"></line><line x1="210.92" y1="153.09" x2="210.92" y2="156.47" fill="none" stroke="#fff" stroke-linecap="round" stroke-width="0.7"></line><path d="M115.52,178.14c4.52.27,25.09.31,34.66-.65,0,17.29.78,16.88-2.31,17.4-13.57,2.26-28.37,1.52-30.12,1C114.92,195.12,115.52,194.18,115.52,178.14Z" fill="none" stroke="#fff" stroke-linecap="round" stroke-width="0.7"></path><path d="M150.18,177.49l-1.31,6c-9.37,1.3-22.63,1.65-32.12.34-.35-1.71-1-3.73-1.23-5.71" fill="none" stroke="#fff" stroke-linecap="round" stroke-width="0.7"></path><line x1="148.87" y1="183.51" x2="149.25" y2="194.46" fill="none" stroke="#fff" stroke-linecap="round" stroke-width="0.7"></line><line x1="116.75" y1="183.85" x2="116.75" y2="195.49" fill="none" stroke="#fff" stroke-linecap="round" stroke-width="0.7"></line><polyline points="53.85 143.44 48.32 143.75 47.68 156.08" fill="none" stroke="#fff" stroke-linecap="round" stroke-width="0.7"></polyline><path d="M48.32,143.75a45.5,45.5,0,0,1,1.26-16.7c-3.39,9-2.92,22.13-1.9,29,6.6-1.14,4.55,1.52,6.18-12.6a105.13,105.13,0,0,1-.77-11" fill="none" stroke="#fff" stroke-linecap="round" stroke-width="0.7"></path><path d="M96.39,64.56C87.66,81.71,75.28,101.15,83.81,106c15.26,8.69,57.5-43.77,105-50.9,17.05-2.56,23.69,1.1,29.17,6" fill="none" stroke="#fff" stroke-linecap="round" stroke-width="0.7"></path><path d="M93.8,70.77c-2.23,7.85,1.51,12.24,15.59,8.46,22.56-6,42.19-22.94,70.25-29.16s31.32,1,31.32,1" fill="none" stroke="#fff" stroke-linecap="round" stroke-width="0.7"></path><path d="M96.39,64.56a33.45,33.45,0,0,0-2.59,6.21" fill="none" stroke="#fff" stroke-linecap="round" stroke-linejoin="round" stroke-width="2"></path><path d="M168.26,29.76c-35.31-4.65-51.93,27.8-46.58,29.92" fill="none" stroke="#fff" stroke-linecap="round" stroke-width="0.7"></path><path d="M119.83,59.32c-6.77-2.5,1.65-23.68,24.74-31.69,15.86-5.51,27.21-.89,27.21-.89" fill="none" stroke="#fff" stroke-linecap="round" stroke-width="0.7"></path><path d="M216.12,162.56c7.35-5.38,14.6-14.69,16.57-19.18" fill="none" stroke="#fff" stroke-linecap="round" stroke-width="0.7"></path><path d="M150.16,189.88a144,144,0,0,0,40.46-12.13" fill="none" stroke="#fff" stroke-linecap="round" stroke-width="0.7"></path><path d="M52.72,155.2s5.46,29.49,62.8,35.36" fill="none" stroke="#fff" stroke-linecap="round" stroke-width="0.7"></path></g><rect width="254.43" height="254.43" fill="none"></rect></g></svg> 