<?xml version="1.0" encoding="utf-8"?>
<!-- Generator: Adobe Illustrator 24.1.1, SVG Export Plug-In . SVG Version: 6.00 Build 0)  -->
<svg version="1.1" id="Layer_1" xmlns="http://www.w3.org/2000/svg" xmlns:xlink="http://www.w3.org/1999/xlink" x="0px" y="0px"
	 viewBox="0 0 254.4 254.4" style="enable-background:new 0 0 254.4 254.4;" xml:space="preserve">
<style type="text/css">
	.st0{fill:#08436A;}
	.st1{fill:#FFFFFF;}
	.st2{fill:none;}
</style>
<g id="Layer_2_1_">
	<g id="Layer_1-2">
		<polygon class="st0" points="79.6,205.6 3.8,165.1 3.8,147.4 175.2,51.7 250.5,92.9 250.5,110.6 		"/>
		<path class="st1" d="M79.3,208.3c-0.4,0-0.8-0.1-1.1-0.3l0,0L4.3,168.6l0,0c-1.1-0.5-1.8-1.6-1.8-2.8v-9.4H2.4v-1.1l0,0v-5.1
			c-0.1-1,0.4-1.9,1.4-2.4h0.1c14.1-7.9,28.3-15.8,42.2-23.6L114.9,86l57.8-32.3l0,0c1.2-0.7,2.7-0.7,3.9,0l0,0
			c24.1,13,48.6,26.2,72.7,39.3h0.1c0.7,0.3,1.4,0.8,1.8,1.4c0.4,0.6,0.5,1.3,0.5,2v0.1c-0.1,3.1-0.1,6.3,0,9.4v4.7
			c0,1.2-0.6,2.4-1.7,2.9l0,0l-100.2,55.8l-69.1,38.6l0,0C80.1,208.1,79.7,208.2,79.3,208.3z M67.8,199.5c1.9,1,3.9,2,5.9,3.1
			l2.3,1.2l2,1v-12c0.1-1.4-0.7-2.7-2-3.2c-20.9-11.1-42.1-22.4-63.1-33.6l-7.8-4.1v5.4l0,0v5.8c-0.2,1.8,0.9,3.6,2.6,4.3
			C27.7,178,47.9,188.8,67.8,199.5L67.8,199.5z M82.5,189.9c-0.9,0.5-1.5,1.3-1.8,2.2v0.3c-0.1,2.4-0.1,4.8-0.1,7.4l0,0v4.8l2-1
			l0.5-0.3l0,0c0.5-0.3,0.9-0.4,1.3-0.7l16.1-9l84.4-47.1l61.9-34.5c1.4-0.6,2.2-2,2.1-3.5c-0.1-1.7,0-3.4,0-5l0,0v-2.6
			c0-0.6,0-1.2-0.1-1.8l-0.3-1.9l-1.7,0.9l-0.6,0.3l-1,0.5l-27.8,15.5c-22.5,12.5-45.3,25.1-67.6,37.6c-2,1-3.5,2.7-4.1,4.9
			c-0.5,1.4-1,2.9-1.6,4.4c-0.1-0.2-0.2-0.6-0.2-0.6c-0.3-0.9-0.5-1.9-0.8-2.8l-0.5-1.6l-3.9,2.1l-20.3,11.3L82.5,189.9z
			 M77.5,187.5c0.6,0.4,1.3,0.6,2.1,0.6c0.8,0,1.6-0.3,2.2-0.7l2.1-1.2c10-5.6,20.1-11.3,30.1-16.8l7.6-4.2l6.8-3.8l13.3-7.4
			c0.5-0.1,1-0.2,1.5-0.4c0.6-0.2,1-0.6,1.3-1.1l3.9-2.2c0.7-0.3,1.4-0.7,2.1-1.1c3.7-2.1,7.6-4.4,12-6.8s8.8-4.9,12.5-7l4.5-2.5
			l0,0l11.2-6.2c0.3-0.2,0.6-0.4,0.8-0.5h0.1l3.5-1.9c0.3-0.1,0.6-0.3,0.9-0.4l0,0c8.6-4.8,17.3-9.7,25.8-14.4h0.1l10.6-5.9l15-8.5
			l-2.1-1.2c-3.6-2-6.6-3.6-9.6-5.2h-0.1l-22.4-12.4l0,0l-3.1-1.7c-2.8-1.5-5.4-3-8.1-4.4L184.8,61l0,0c-3.4-1.8-6.2-3.3-8.8-4.7
			h-0.2c-0.4-0.1-0.8-0.2-1.1-0.2c-0.6,0-1.1,0.1-1.6,0.4l0,0l-37.6,21l-8.9,5l-0.1,0.1l-0.2,0.1l-5.8,3.1l0,0L6.2,149.5l2.2,1.2
			l0.5,0.3l0,0l1.3,0.7c0.9,0.5,1.7,0.9,2.5,1.4l0.1,0.1c0.2,0.2,0.5,0.3,0.7,0.4l21.1,11.2l0,0l0.4,0.2l1.5,0.8l0,0
			c1.8,0.9,3.6,1.9,5.3,2.9c0.2,0.2,0.5,0.3,0.8,0.4l3.3,1.8l0,0l18.2,9.7h0.1l0.3,0.1l5.5,2.9c1,0.5,2,1,2.9,1.6l0,0
			c0.9,0.5,1.8,0.9,2.7,1.5l0,0C76.4,186.9,76.9,187.2,77.5,187.5L77.5,187.5z"/>
		<path class="st1" d="M30.5,163.3c0.2-0.1,2.6-3,2.8-3.1l0,0c1.6-1.4,3.1-3.1,4.5-4.8l0,0c1-1.5,2.3-2.9,3.8-4.1
			c1.4-1.2,3.1-2.1,4.8-2.8l0,0c7.4-3.1,14.9-6.1,22.2-9l5.8-2.4c4-1.6,8-3.2,12-4.8c7.7-3.1,15.6-6.2,23.3-9.5
			c4.6-1.8,8.7-4.4,12.3-7.7l0,0c1-1.2,1.9-2.5,2.5-4c0.5-1,0.9-2.1,1.4-3.1c0.6-1.6,1.3-3.1,2.2-4.6c2-2.9,4.3-5.6,7-7.9
			c2.7-2.3,5.5-4.5,8.5-6.4c4.1-2.7,8.4-5.2,12.9-7.3c4.2-2,8.5-3.8,13.6-6s10.1-4.4,15.6-7l0,0c2.4-1.5,4.7-3.1,6.9-4.8l0.1,0.3
			l2.1,0.9c-0.3,0.1-2,1.3-2.1,1.4l0,0c-0.9,0.6-1.7,1.2-2.5,1.8c-1.4,1.2-3,2.3-4.7,3.2l0,0c-4.3,1.9-8.6,3.7-12.9,5.5
			c-4,1.7-8.1,3.4-12.2,5.2c-7.9,3.5-17.1,8-24.9,14.8c-3.7,3.2-7.5,7.3-8.6,13.2l0,0c-0.1,1.2-0.5,2.3-1.1,3.3
			c-0.6,1-1.3,1.9-2.3,2.6c-3.5,2.6-7.1,4.9-10.9,6.9c-8.1,4.1-16.8,7.3-25.2,10.4c-3,1.1-6.2,2.3-9.3,3.5
			c-8.7,3.4-17.9,7.2-29,11.9c-2.6,1.1-5,2.7-7.1,4.7l0,0c-2.4,2.5-6.9,8-9,10.8L30.5,163.3z M11.7,152.9c0.3-0.1,0.6-0.2,0.8-0.4
			c9.7-6.3,23.3-13.2,34.4-16.3c8.8-2.6,20.4-6.3,31.2-12.4c15.3-8.6,27.1-18.2,36.1-29.2l0,0c1.3-1.7,2.6-3.5,3.8-5.3
			c0.7-1,1.4-2,2.1-2.9l0.2-0.2l-0.3-0.3l3.6-2c-0.3,0.4-0.5,0.7-0.7,1.1c-1.1,2.1-2.3,4-3.6,5.9c-2.1,3.1-4.4,6-6.9,8.7
			c-2.4,2.7-5,5.3-7.8,7.8c-5.5,4.9-11.4,9.4-17.7,13.3c-11.9,7.6-24.9,13.3-38.5,17c-10.7,2.9-20.9,7.4-30.2,13.4
			c-0.2,0.2-3.6,2.3-3.9,2.5l-0.6,0.4L11.7,152.9z"/>
		<path class="st1" d="M216.4,77c-6.1,13.8-27.1,24.7-30,26.2c-1,0.5-1.9,1.2-2.5,2.1c-0.3,0.3-0.5,0.7-0.6,1.1l0,0
			c0,0.1,0,0.2-0.1,0.2v0.1c0,0.1,0,0.1,0,0.2c0,0,0,0.1,0,0.1v0.1c-0.5,1.6-1,3.2-1.6,4.8c-3.1,6.1-8.1,10.9-14.3,13.8l0,0
			c-1.1,0.5-2.3,1-3.4,1.3c-1.1,0.3-2.3,0.5-3.5,0.5c-1.9,0-3.9-0.5-5.6-1.3c-0.7-0.3-1.4-0.8-1.9-1.4c-0.5-0.5-0.8-1-1-1.7
			c-0.3-1.4,0-2.8,0.8-3.9c1.2-1.9,2.6-3.6,4.3-5.1c1.4-1.2,2.8-2.4,4.3-3.5l-0.1,0.2c-1.5,1.5-3,3.1-4.3,4.7l0,0
			c-1,1.3-1.9,2.7-2.7,4.1c-0.7,0.9-0.9,2.1-0.6,3.2c0.5,1.1,1.4,1.9,2.6,2.3c2.1,1,4.4,1.2,6.6,0.6l0,0c8.7-2.3,14.9-8,18.6-16.8
			c0.8-2.1,1-3.7,0.3-4.9s-2-2.3-4.4-3l0,0c-4-1.1-8.3-1.3-12.4-0.4c-8.1,1.5-13.8,3.7-18.5,7.4c-4.4,3.4-5.2,5.9-3.7,11.3
			c0,0.2,0.1,0.4,0.1,0.6c0,0.1,0.1,0.1,0.1,0.2l0,0c0.4,1.2,0.4,2.4,0,3.6c-0.6,1.1-1.5,1.9-2.6,2.4c-18.5,9.6-37.7,19.5-57.3,28.2
			c-3.6,1.6-7.7,3.4-11.7,5c-3.9,1.6-7.9,2.9-12,4l0,0c-2.4,0.7-4.7,1.7-6.8,3l0,0c-1.8,1.1-4.6,3.4-6.2,4.7l-1.1-0.6
			c0.2-0.1,1.4-1.2,1.5-1.4c3.6-3.3,7.8-5.7,12.4-7.3l0,0l0.7-0.3c2.4-0.8,4.8-1.7,7.1-2.8c23.6-11,47.4-22.1,70.8-33.1
			c2-1,3.2-1.5,3.7-2.6s0.1-2.2-0.6-4.4l0,0c-1.2-3.5-0.2-7.3,2.4-9.8l0,0c0.7-0.8,1.5-1.5,2.3-2.2c3.6-2.5,7.6-4.5,11.8-6
			c4.1-1.4,8.4-2.1,12.8-2.1c1.7,0,3.5,0.1,5.2,0.3c1.5,0.1,3,0.5,4.4,1.2c1.4,0.7,2.6,1.7,3.4,3.1l0.3,0.4l0.5-0.2
			c11.4-5.5,23.4-16.5,30.8-26.9L216.4,77z"/>
		<path class="st1" d="M238.9,89.4c-0.4-0.1-3.5,1.8-3.8,2.1c-2.1,2.3-4.7,4-7.6,5c-6.4,2.7-13.1,5.3-19.5,8.3
			c-6,2.8-11.4,6.8-15.9,11.6c-1.1,0.9-1.3,2.5-0.5,3.6c0.7,1.2,1.5,2.3,2.3,3.5c0.6,0.9,1,1.1,1.7,0.9l-3.6,2l0.3-0.2
			c-1.2-2-2.4-3.8-3.4-5.7c-1.1-1.8-0.7-4.1,0.9-5.4c2.3-2.3,4.8-4.4,7.4-6.4c5.8-4.1,12.4-6.6,18.9-9.3c3.2-1.3,6.2-2.5,9.3-3.9
			c1.2-0.6,2.4-1,3.6-1.5c2.5-1,6.4-4.6,7.8-5.8L238.9,89.4z"/>
		<path class="st1" d="M148.6,150.1l-2.6,2.6c-1.3-0.5,0.1,1.6-1.1,1l-0.2,0.4c0.8,0.7-1.9-0.4-1.1,0.3l-15.2,7
			c-5.3-1.7-10.2-2.9-15.3-2.5c-2.6,0.2-5.1,1.4-6.8,3.4c-1.3,1.4-2.8,2.6-4.4,3.6c-7.4,5-15.4,8.7-23.4,12.5
			c-2.7,1.2-7.2,3.3-10.1,4.6l-3.4-2.2c0.8,0,1.7-0.1,2.5-0.4c9.8-4.5,19.7-8.9,29.5-13.6c3.5-1.6,6.7-3.8,9.4-6.5
			c3-3.3,7.4-4.9,11.8-4.3c4.1,0.4,8.2,1.5,12,3.1c0.5,0.3,1.1,0.4,1.7,0.3c3.1-1.6,6.1-3.3,9.3-5.1l-7.1-5.8l0.2-0.3
			c2.5,0.5,5,1.2,7.5,2C143.9,151.1,146.4,151.1,148.6,150.1z"/>
	</g>
</g>
<rect x="-0.1" y="1.4" class="st2" width="254.4" height="254.4"/>
</svg>
